<svg width="20" height="20" viewBox="0 0 20 20" fill="none" xmlns="http://www.w3.org/2000/svg">
<path d="M7.42614 17.2245C7.26781 17.2245 7.10947 17.1662 6.98447 17.0412C6.74281 16.7995 6.74281 16.3995 6.98447 16.1578L12.4178 10.7245C12.8178 10.3245 12.8178 9.6745 12.4178 9.2745L6.98447 3.84119C6.74281 3.59953 6.74281 3.19953 6.98447 2.95786C7.22614 2.71619 7.62614 2.71619 7.86781 2.95786L13.3012 8.39117C13.7262 8.81617 13.9678 9.39117 13.9678 9.9995C13.9678 10.6078 13.7345 11.1828 13.3012 11.6078L7.86781 17.0412C7.74281 17.1578 7.58447 17.2245 7.42614 17.2245Z" fill="#0D54BE"/>
</svg>
