<svg width="20" height="20" viewBox="0 0 20 20" fill="none" xmlns="http://www.w3.org/2000/svg">
<path d="M9.99984 18.9583C5.05817 18.9583 1.0415 14.9416 1.0415 9.99996C1.0415 5.05829 5.05817 1.04163 9.99984 1.04163C14.9415 1.04163 18.9582 5.05829 18.9582 9.99996C18.9582 14.9416 14.9415 18.9583 9.99984 18.9583ZM9.99984 2.29163C5.74984 2.29163 2.2915 5.74996 2.2915 9.99996C2.2915 14.25 5.74984 17.7083 9.99984 17.7083C14.2498 17.7083 17.7082 14.25 17.7082 9.99996C17.7082 5.74996 14.2498 2.29163 9.99984 2.29163Z" fill="#777E90"/>
<path d="M13.0924 13.2764C12.984 13.2764 12.8757 13.2514 12.7757 13.1847L10.1924 11.6431C9.55068 11.2597 9.07568 10.4181 9.07568 9.67642V6.25977C9.07568 5.9181 9.35902 5.63477 9.70068 5.63477C10.0424 5.63477 10.3257 5.9181 10.3257 6.25977V9.67642C10.3257 9.97642 10.5757 10.4181 10.834 10.5681L13.4173 12.1097C13.7173 12.2847 13.809 12.6681 13.634 12.9681C13.509 13.1681 13.3007 13.2764 13.0924 13.2764Z" fill="#777E90"/>
</svg>
