<svg width="24" height="25" viewBox="0 0 24 25" fill="none" xmlns="http://www.w3.org/2000/svg">
<path d="M17 21.9864H7C5.19398 21.9864 3.78472 21.4672 2.82696 20.5095C1.8692 19.5517 1.35 18.1424 1.35 16.3364V9.33643C1.35 7.53041 1.8692 6.12115 2.82696 5.16339C3.78472 4.20562 5.19398 3.68643 7 3.68643H17C18.806 3.68643 20.2153 4.20562 21.173 5.16339C22.1308 6.12115 22.65 7.53041 22.65 9.33643V16.3364C22.65 18.1424 22.1308 19.5517 21.173 20.5095C20.2153 21.4672 18.806 21.9864 17 21.9864ZM7 4.98643C5.5553 4.98643 4.46251 5.33749 3.73179 6.06822C3.00107 6.79894 2.65 7.89173 2.65 9.33643V16.3364C2.65 17.7811 3.00107 18.8739 3.73179 19.6046C4.46251 20.3354 5.5553 20.6864 7 20.6864H17C18.4447 20.6864 19.5375 20.3354 20.2682 19.6046C20.9989 18.8739 21.35 17.7811 21.35 16.3364V9.33643C21.35 7.89173 20.9989 6.79894 20.2682 6.06822C19.5375 5.33749 18.4447 4.98643 17 4.98643H7Z" fill="#0D54BE" stroke="#0D54BE" stroke-width="0.2"/>
<path d="M11.9988 13.7044C11.1588 13.7044 10.3088 13.4444 9.6588 12.9144L6.5288 10.4144C6.2088 10.1544 6.14881 9.68444 6.4088 9.36444C6.6688 9.04444 7.13881 8.98444 7.45881 9.24444L10.5888 11.7444C11.3488 12.3544 12.6388 12.3544 13.3988 11.7444L16.5288 9.24444C16.8488 8.98444 17.3288 9.03444 17.5788 9.36444C17.8388 9.68444 17.7888 10.1644 17.4588 10.4144L14.3288 12.9144C13.6888 13.4444 12.8388 13.7044 11.9988 13.7044Z" fill="#0D54BE"/>
</svg>
