<svg width="20" height="20" viewBox="0 0 20 20" fill="none" xmlns="http://www.w3.org/2000/svg">
<path fill-rule="evenodd" clip-rule="evenodd" d="M9.99984 7.29163C8.50409 7.29163 7.2915 8.50421 7.2915 9.99996C7.2915 11.4957 8.50409 12.7083 9.99984 12.7083C11.4956 12.7083 12.7082 11.4957 12.7082 9.99996C12.7082 8.50421 11.4956 7.29163 9.99984 7.29163ZM8.5415 9.99996C8.5415 9.19454 9.19442 8.54163 9.99984 8.54163C10.8053 8.54163 11.4582 9.19454 11.4582 9.99996C11.4582 10.8054 10.8053 11.4583 9.99984 11.4583C9.19442 11.4583 8.5415 10.8054 8.5415 9.99996Z" fill="#777E90"/>
<path fill-rule="evenodd" clip-rule="evenodd" d="M10.0001 3.54163C6.84109 3.54163 4.80027 5.13283 3.57116 6.69715C2.95962 7.47548 2.54463 8.25085 2.28223 8.83088C2.15068 9.12171 2.05651 9.36554 1.99453 9.53913C1.96351 9.62596 1.94049 9.69538 1.92482 9.74446C1.91698 9.76904 1.91098 9.78854 1.90673 9.80263C1.90461 9.80963 1.90291 9.81538 1.90166 9.81963L1.90099 9.82196L1.90009 9.82504L1.89955 9.82688L1.89933 9.82763C1.89924 9.82796 1.89916 9.82829 2.50011 9.99996L1.89916 9.82829L1.8501 9.99996L1.89916 10.1716L2.50011 9.99996C1.89916 10.1716 1.89924 10.172 1.89933 10.1723L1.89955 10.173L1.90009 10.1749C1.90051 10.1764 1.90103 10.1781 1.90166 10.1803C1.90291 10.1845 1.90461 10.1903 1.90673 10.1973C1.91098 10.2114 1.91698 10.2309 1.92482 10.2555C1.94049 10.3045 1.96351 10.374 1.99453 10.4608C2.05651 10.6344 2.15068 10.8782 2.28223 11.169C2.54463 11.749 2.95962 12.5245 3.57116 13.3028C4.80027 14.8671 6.84109 16.4583 10.0001 16.4583C13.1591 16.4583 15.2 14.8671 16.429 13.3028C17.0406 12.5245 17.4556 11.749 17.718 11.169C17.8495 10.8782 17.9437 10.6344 18.0057 10.4608C18.0367 10.374 18.0597 10.3045 18.0754 10.2555C18.0832 10.2309 18.0892 10.2114 18.0935 10.1973C18.0956 10.1903 18.0973 10.1845 18.0985 10.1803C18.0992 10.1781 18.0997 10.1764 18.1001 10.1749L18.1007 10.173L18.1009 10.1723C18.101 10.172 18.101 10.1716 17.5001 9.99996L18.101 10.1716L18.1501 9.99996L18.101 9.82829L17.5001 9.99996C18.101 9.82829 18.101 9.82796 18.1009 9.82763L18.1007 9.82688L18.1001 9.82504C18.0997 9.82354 18.0992 9.82179 18.0985 9.81963C18.0973 9.81538 18.0956 9.80963 18.0935 9.80263C18.0892 9.78854 18.0832 9.76904 18.0754 9.74446C18.0597 9.69538 18.0367 9.62596 18.0057 9.53913C17.9437 9.36554 17.8495 9.12171 17.718 8.83088C17.4556 8.25085 17.0406 7.47548 16.429 6.69715C15.2 5.13283 13.1591 3.54163 10.0001 3.54163ZM3.17171 10.0404C3.16666 10.0263 3.1619 10.0128 3.15741 9.99996C3.1619 9.98713 3.16666 9.97363 3.17171 9.95954C3.22366 9.81404 3.30526 9.60221 3.42111 9.34613C3.65351 8.83238 4.01976 8.14944 4.55406 7.46943C5.61661 6.11709 7.3258 4.79163 10.0001 4.79163C12.6745 4.79163 14.3836 6.11709 15.4461 7.46943C15.9805 8.14944 16.3467 8.83238 16.5791 9.34613C16.695 9.60221 16.7765 9.81404 16.8285 9.95954C16.8335 9.97363 16.8383 9.98713 16.8428 9.99996C16.8383 10.0128 16.8335 10.0263 16.8285 10.0404C16.7765 10.1859 16.695 10.3977 16.5791 10.6538C16.3467 11.1675 15.9805 11.8505 15.4461 12.5305C14.3836 13.8828 12.6745 15.2083 10.0001 15.2083C7.3258 15.2083 5.61661 13.8828 4.55406 12.5305C4.01976 11.8505 3.65351 11.1675 3.42111 10.6538C3.30526 10.3977 3.22366 10.1859 3.17171 10.0404Z" fill="#777E90"/>
</svg>
