<svg width="40" height="40" viewBox="0 0 40 40" fill="none" xmlns="http://www.w3.org/2000/svg">
<rect width="40" height="40" rx="20" fill="#0D54BE"/>
<g clip-path="url(#clip0_1181_9903)">
<path d="M22.3179 17C22.1709 17 22.0239 16.957 21.8959 16.87L19.9999 15.58L18.1039 16.87C17.8469 17.046 17.5069 17.044 17.2519 16.864C16.9969 16.686 16.8779 16.368 16.9549 16.065L17.5519 13.712L15.7629 12.185C15.5299 11.985 15.4409 11.665 15.5399 11.375C15.6379 11.084 15.9019 10.883 16.2079 10.865L18.4729 10.737L19.2969 8.492C19.4039 8.196 19.6859 8 19.9999 8C20.3139 8 20.5959 8.196 20.7039 8.492L21.5279 10.737L23.7929 10.865C24.0989 10.883 24.3629 11.084 24.4609 11.375C24.5589 11.665 24.4709 11.985 24.2379 12.185L22.4489 13.713L23.0459 16.066C23.1229 16.369 23.0039 16.686 22.7489 16.865C22.6189 16.955 22.4679 17 22.3179 17Z" fill="white"/>
<path d="M31.2491 27H26.4991V31.25C26.4991 31.51 26.4491 31.77 26.3691 32H31.2491C31.6591 32 31.9991 31.66 31.9991 31.25V27.75C31.9991 27.34 31.6591 27 31.2491 27Z" fill="white"/>
<path d="M13.5 25H8.75C8.34 25 8 25.34 8 25.75V31.25C8 31.66 8.34 32 8.75 32H13.63C13.55 31.77 13.5 31.51 13.5 31.25V25Z" fill="white"/>
<path d="M24.25 19H15.75C15.336 19 15 19.336 15 19.75V31.25C15 31.664 15.336 32 15.75 32H24.25C24.664 32 25 31.664 25 31.25V19.75C25 19.336 24.664 19 24.25 19ZM20.75 27.25C20.75 27.664 20.414 28 20 28C19.586 28 19.25 27.664 19.25 27.25V24.309C19.097 24.172 19 23.972 19 23.75C19 23.336 19.336 23 19.75 23H20C20.414 23 20.75 23.336 20.75 23.75V27.25Z" fill="white"/>
</g>
<defs>
<clipPath id="clip0_1181_9903">
<rect width="24" height="24" fill="white" transform="translate(8 8)"/>
</clipPath>
</defs>
</svg>
