<svg width="16" height="16" viewBox="0 0 16 16" fill="none" xmlns="http://www.w3.org/2000/svg">
<path fill-rule="evenodd" clip-rule="evenodd" d="M13.9493 2.41133C13.916 2.3311 13.8673 2.25817 13.806 2.19667L13.8033 2.194C13.6786 2.0696 13.5095 1.99982 13.3333 2H9.33333C9.15652 2 8.98695 2.07024 8.86193 2.19526C8.73691 2.32029 8.66667 2.48986 8.66667 2.66667C8.66667 2.84348 8.73691 3.01305 8.86193 3.13807C8.98695 3.2631 9.15652 3.33333 9.33333 3.33333H11.724L6.862 8.19533C6.79833 8.25683 6.74754 8.3304 6.7126 8.41173C6.67766 8.49307 6.65927 8.58055 6.6585 8.66907C6.65773 8.75759 6.6746 8.84537 6.70812 8.9273C6.74164 9.00923 6.79114 9.08367 6.85374 9.14626C6.91633 9.20886 6.99077 9.25836 7.0727 9.29188C7.15463 9.3254 7.24241 9.34227 7.33093 9.3415C7.41945 9.34073 7.50693 9.32234 7.58827 9.2874C7.66961 9.25246 7.74317 9.20167 7.80467 9.138L12.6667 4.276V6.66667C12.6667 6.84348 12.7369 7.01305 12.8619 7.13807C12.987 7.2631 13.1565 7.33333 13.3333 7.33333C13.5101 7.33333 13.6797 7.2631 13.8047 7.13807C13.9298 7.01305 14 6.84348 14 6.66667V2.66467C13.9998 2.57772 13.9826 2.49166 13.9493 2.41133ZM2 5.33333C2 4.44928 2.35119 3.60143 2.97631 2.97631C3.60143 2.35119 4.44928 2 5.33333 2H6C6.17681 2 6.34638 2.07024 6.4714 2.19526C6.59643 2.32029 6.66667 2.48986 6.66667 2.66667C6.66667 2.84348 6.59643 3.01305 6.4714 3.13807C6.34638 3.2631 6.17681 3.33333 6 3.33333H5.33333C4.8029 3.33333 4.29419 3.54405 3.91912 3.91912C3.54405 4.29419 3.33333 4.8029 3.33333 5.33333V10.6667C3.33333 11.1971 3.54405 11.7058 3.91912 12.0809C4.29419 12.456 4.8029 12.6667 5.33333 12.6667H10.6667C11.1971 12.6667 11.7058 12.456 12.0809 12.0809C12.456 11.7058 12.6667 11.1971 12.6667 10.6667V10C12.6667 9.82319 12.7369 9.65362 12.8619 9.5286C12.987 9.40357 13.1565 9.33333 13.3333 9.33333C13.5101 9.33333 13.6797 9.40357 13.8047 9.5286C13.9298 9.65362 14 9.82319 14 10V10.6667C14 11.5507 13.6488 12.3986 13.0237 13.0237C12.3986 13.6488 11.5507 14 10.6667 14H5.33333C4.44928 14 3.60143 13.6488 2.97631 13.0237C2.35119 12.3986 2 11.5507 2 10.6667V5.33333Z" fill="white"/>
</svg>
