<svg width="40" height="40" viewBox="0 0 40 40" fill="none" xmlns="http://www.w3.org/2000/svg">
<g clip-path="url(#clip0_1100_6745)">
<circle cx="20" cy="20" r="20" fill="#0D54BE"/>
<path d="M18.3281 23.1719V25H12.6016V23.1719H18.3281ZM13.3594 13.625V25H11.0156V13.625H13.3594ZM28.6719 19.0547V23.5625C28.4948 23.776 28.2214 24.0078 27.8516 24.2578C27.4818 24.5026 27.0052 24.7135 26.4219 24.8906C25.8385 25.0677 25.1328 25.1562 24.3047 25.1562C23.5703 25.1562 22.901 25.0365 22.2969 24.7969C21.6927 24.5521 21.1719 24.1953 20.7344 23.7266C20.3021 23.2578 19.9688 22.6849 19.7344 22.0078C19.5 21.3255 19.3828 20.5469 19.3828 19.6719V18.9609C19.3828 18.0859 19.4948 17.3073 19.7188 16.625C19.9479 15.9427 20.2734 15.3672 20.6953 14.8984C21.1172 14.4297 21.6198 14.0729 22.2031 13.8281C22.7865 13.5833 23.4349 13.4609 24.1484 13.4609C25.138 13.4609 25.9505 13.6224 26.5859 13.9453C27.2214 14.263 27.7057 14.7057 28.0391 15.2734C28.3776 15.8359 28.5859 16.4818 28.6641 17.2109H26.3906C26.3333 16.8255 26.224 16.4896 26.0625 16.2031C25.901 15.9167 25.6693 15.6927 25.3672 15.5312C25.0703 15.3698 24.6849 15.2891 24.2109 15.2891C23.8203 15.2891 23.4714 15.3698 23.1641 15.5312C22.862 15.6875 22.6068 15.9193 22.3984 16.2266C22.1901 16.5339 22.0312 16.9141 21.9219 17.3672C21.8125 17.8203 21.7578 18.3464 21.7578 18.9453V19.6719C21.7578 20.2656 21.8151 20.7917 21.9297 21.25C22.0443 21.7031 22.2135 22.0859 22.4375 22.3984C22.6667 22.7057 22.9479 22.9375 23.2812 23.0938C23.6146 23.25 24.0026 23.3281 24.4453 23.3281C24.8151 23.3281 25.1224 23.2969 25.3672 23.2344C25.6172 23.1719 25.8177 23.0964 25.9688 23.0078C26.125 22.9141 26.2448 22.8255 26.3281 22.7422V20.7266H24.1875V19.0547H28.6719Z" fill="white"/>
</g>
<defs>
<clipPath id="clip0_1100_6745">
<rect width="40" height="40" rx="20" fill="white"/>
</clipPath>
</defs>
</svg>
