<svg width="16" height="16" viewBox="0 0 16 16" fill="none" xmlns="http://www.w3.org/2000/svg">
<path d="M6.33301 1.33338C7.40567 1.33334 8.44993 1.67812 9.31169 2.31685C10.1735 2.95557 10.8071 3.85441 11.119 4.88071C11.9452 5.13188 12.6923 5.59275 13.2874 6.21843C13.8826 6.84411 14.3056 7.61326 14.5152 8.45097C14.7248 9.28869 14.7138 10.1664 14.4834 10.9986C14.253 11.8309 13.811 12.5892 13.2004 13.1999C12.5898 13.8105 11.8315 14.2526 10.9993 14.4831C10.1671 14.7136 9.28937 14.7246 8.45164 14.5151C7.6139 14.3056 6.8447 13.8828 6.21896 13.2877C5.59322 12.6926 5.13227 11.9455 4.88101 11.1194C3.73259 10.7721 2.74732 10.0235 2.10502 9.01018C1.46271 7.99683 1.20619 6.7863 1.38228 5.59953C1.55837 4.41276 2.15532 3.32887 3.06419 2.54568C3.97306 1.76248 5.13324 1.33221 6.33301 1.33338ZM11.3317 6.39938L11.333 6.33338C11.3331 7.64799 10.8155 8.90976 9.89219 9.84555C8.96888 10.7813 7.71417 11.3158 6.39968 11.3334C6.66272 11.8485 7.04389 12.294 7.51204 12.6337C7.9802 12.9733 8.52206 13.1974 9.09336 13.2876C9.66466 13.3778 10.2492 13.3316 10.7992 13.1527C11.3492 12.9738 11.8491 12.6673 12.2581 12.2583C12.667 11.8493 12.9734 11.3494 13.1522 10.7993C13.331 10.2493 13.3772 9.66475 13.2869 9.09346C13.1966 8.52217 12.9725 7.98034 12.6328 7.51224C12.2931 7.04413 11.8475 6.66302 11.3323 6.40004L11.3317 6.39938ZM6.33301 2.66671C5.50923 2.66642 4.70936 2.94353 4.06233 3.45338C3.41529 3.96323 2.95879 4.67611 2.76642 5.4771C2.57404 6.2781 2.657 7.12054 3.00192 7.86863C3.34684 8.61672 3.93362 9.22686 4.66767 9.60071L4.66634 9.66671C4.66622 8.3521 5.18385 7.09033 6.10716 6.15454C7.03047 5.21875 8.28518 4.68424 9.59968 4.66671C9.29261 4.06449 8.82495 3.55893 8.24843 3.20596C7.67191 2.85299 7.009 2.66636 6.33301 2.66671Z" fill="#141416"/>
</svg>
