<svg width="20" height="20" viewBox="0 0 20 20" fill="none" xmlns="http://www.w3.org/2000/svg">
<mask id="path-1-inside-1_932_3971" fill="white">
<path d="M13.6332 11.667C13.6998 11.117 13.7498 10.567 13.7498 10.0003C13.7498 9.43366 13.6998 8.88366 13.6332 8.33366H16.4498C16.5832 8.86699 16.6665 9.42533 16.6665 10.0003C16.6665 10.5753 16.5832 11.1337 16.4498 11.667M12.1582 16.3003C12.6582 15.3753 13.0415 14.3753 13.3082 13.3337H15.7665C14.9591 14.7239 13.6783 15.777 12.1582 16.3003ZM11.9498 11.667H8.04984C7.9665 11.117 7.9165 10.567 7.9165 10.0003C7.9165 9.43366 7.9665 8.87533 8.04984 8.33366H11.9498C12.0248 8.87533 12.0832 9.43366 12.0832 10.0003C12.0832 10.567 12.0248 11.117 11.9498 11.667ZM9.99984 16.6337C9.30817 15.6337 8.74984 14.5253 8.40817 13.3337H11.5915C11.2498 14.5253 10.6915 15.6337 9.99984 16.6337ZM6.6665 6.66699H4.23317C5.03222 5.273 6.31217 4.21823 7.83317 3.70033C7.33317 4.62533 6.95817 5.62533 6.6665 6.66699ZM4.23317 13.3337H6.6665C6.95817 14.3753 7.33317 15.3753 7.83317 16.3003C6.31536 15.7767 5.03721 14.7234 4.23317 13.3337ZM3.54984 11.667C3.4165 11.1337 3.33317 10.5753 3.33317 10.0003C3.33317 9.42533 3.4165 8.86699 3.54984 8.33366H6.3665C6.29984 8.88366 6.24984 9.43366 6.24984 10.0003C6.24984 10.567 6.29984 11.117 6.3665 11.667M9.99984 3.35866C10.6915 4.35866 11.2498 5.47533 11.5915 6.66699H8.40817C8.74984 5.47533 9.30817 4.35866 9.99984 3.35866ZM15.7665 6.66699H13.3082C13.0474 5.63487 12.6611 4.63857 12.1582 3.70033C13.6915 4.22533 14.9665 5.28366 15.7665 6.66699ZM9.99984 1.66699C5.3915 1.66699 1.6665 5.41699 1.6665 10.0003C1.6665 12.2105 2.54448 14.3301 4.10728 15.8929C4.8811 16.6667 5.79976 17.2805 6.81081 17.6993C7.82186 18.1181 8.90549 18.3337 9.99984 18.3337C12.21 18.3337 14.3296 17.4557 15.8924 15.8929C17.4552 14.3301 18.3332 12.2105 18.3332 10.0003C18.3332 8.90598 18.1176 7.82234 17.6988 6.8113C17.28 5.80025 16.6662 4.88159 15.8924 4.10777C15.1186 3.33395 14.1999 2.72012 13.1889 2.30133C12.1778 1.88254 11.0942 1.66699 9.99984 1.66699Z"/>
</mask>
<path d="M13.6332 11.667C13.6998 11.117 13.7498 10.567 13.7498 10.0003C13.7498 9.43366 13.6998 8.88366 13.6332 8.33366H16.4498C16.5832 8.86699 16.6665 9.42533 16.6665 10.0003C16.6665 10.5753 16.5832 11.1337 16.4498 11.667M12.1582 16.3003C12.6582 15.3753 13.0415 14.3753 13.3082 13.3337H15.7665C14.9591 14.7239 13.6783 15.777 12.1582 16.3003ZM11.9498 11.667H8.04984C7.9665 11.117 7.9165 10.567 7.9165 10.0003C7.9165 9.43366 7.9665 8.87533 8.04984 8.33366H11.9498C12.0248 8.87533 12.0832 9.43366 12.0832 10.0003C12.0832 10.567 12.0248 11.117 11.9498 11.667ZM9.99984 16.6337C9.30817 15.6337 8.74984 14.5253 8.40817 13.3337H11.5915C11.2498 14.5253 10.6915 15.6337 9.99984 16.6337ZM6.6665 6.66699H4.23317C5.03222 5.273 6.31217 4.21823 7.83317 3.70033C7.33317 4.62533 6.95817 5.62533 6.6665 6.66699ZM4.23317 13.3337H6.6665C6.95817 14.3753 7.33317 15.3753 7.83317 16.3003C6.31536 15.7767 5.03721 14.7234 4.23317 13.3337ZM3.54984 11.667C3.4165 11.1337 3.33317 10.5753 3.33317 10.0003C3.33317 9.42533 3.4165 8.86699 3.54984 8.33366H6.3665C6.29984 8.88366 6.24984 9.43366 6.24984 10.0003C6.24984 10.567 6.29984 11.117 6.3665 11.667M9.99984 3.35866C10.6915 4.35866 11.2498 5.47533 11.5915 6.66699H8.40817C8.74984 5.47533 9.30817 4.35866 9.99984 3.35866ZM15.7665 6.66699H13.3082C13.0474 5.63487 12.6611 4.63857 12.1582 3.70033C13.6915 4.22533 14.9665 5.28366 15.7665 6.66699ZM9.99984 1.66699C5.3915 1.66699 1.6665 5.41699 1.6665 10.0003C1.6665 12.2105 2.54448 14.3301 4.10728 15.8929C4.8811 16.6667 5.79976 17.2805 6.81081 17.6993C7.82186 18.1181 8.90549 18.3337 9.99984 18.3337C12.21 18.3337 14.3296 17.4557 15.8924 15.8929C17.4552 14.3301 18.3332 12.2105 18.3332 10.0003C18.3332 8.90598 18.1176 7.82234 17.6988 6.8113C17.28 5.80025 16.6662 4.88159 15.8924 4.10777C15.1186 3.33395 14.1999 2.72012 13.1889 2.30133C12.1778 1.88254 11.0942 1.66699 9.99984 1.66699Z" fill="black"/>
<path d="M13.6332 8.33366V8.13366H13.4075L13.4346 8.35773L13.6332 8.33366ZM16.4498 8.33366L16.6439 8.28515L16.606 8.13366H16.4498V8.33366ZM13.3082 13.3337V13.1337H13.1529L13.1144 13.2841L13.3082 13.3337ZM15.7665 13.3337L15.9395 13.4341L16.1139 13.1337H15.7665V13.3337ZM11.9498 11.667V11.867H12.1244L12.148 11.694L11.9498 11.667ZM8.04984 11.667L7.85209 11.697L7.87786 11.867H8.04984V11.667ZM8.04984 8.33366V8.13366H7.87825L7.85216 8.30325L8.04984 8.33366ZM11.9498 8.33366L12.1479 8.30623L12.1241 8.13366H11.9498V8.33366ZM9.99984 16.6337L9.83535 16.7474L9.99984 16.9852L10.1643 16.7474L9.99984 16.6337ZM8.40817 13.3337V13.1337H8.14277L8.21592 13.3888L8.40817 13.3337ZM11.5915 13.3337L11.7838 13.3888L11.8569 13.1337H11.5915V13.3337ZM6.6665 6.66699V6.86699H6.8182L6.8591 6.72092L6.6665 6.66699ZM4.23317 6.66699L4.05966 6.56753L3.888 6.86699H4.23317V6.66699ZM7.83317 3.70033L8.00911 3.79543L8.25177 3.34652L7.7687 3.511L7.83317 3.70033ZM6.6665 13.3337L6.8591 13.2797L6.8182 13.1337H6.6665V13.3337ZM7.83317 16.3003L7.76795 16.4894L8.25321 16.6568L8.00911 16.2052L7.83317 16.3003ZM3.54984 8.33366V8.13366H3.39368L3.35581 8.28515L3.54984 8.33366ZM6.3665 8.33366L6.56505 8.35773L6.59221 8.13366H6.3665V8.33366ZM11.5915 6.66699V6.86699H11.8569L11.7838 6.61187L11.5915 6.66699ZM8.40817 6.66699L8.21592 6.61187L8.14277 6.86699H8.40817V6.66699ZM15.7665 6.66699V6.86699H16.1132L15.9396 6.56687L15.7665 6.66699ZM13.3082 6.66699L13.1143 6.71599L13.1524 6.86699H13.3082V6.66699ZM12.1582 3.70033L12.223 3.51111L11.7414 3.34624L11.9819 3.79482L12.1582 3.70033ZM9.99984 18.3337V18.5337V18.3337ZM13.8317 11.6911C13.8988 11.1375 13.9498 10.5785 13.9498 10.0003H13.5498C13.5498 10.5555 13.5009 11.0965 13.4346 11.6429L13.8317 11.6911ZM13.9498 10.0003C13.9498 9.42216 13.8988 8.86319 13.8317 8.30959L13.4346 8.35773C13.5009 8.90412 13.5498 9.44516 13.5498 10.0003H13.9498ZM13.6332 8.53366H16.4498V8.13366H13.6332V8.53366ZM16.2558 8.38217C16.386 8.90278 16.4665 9.44463 16.4665 10.0003H16.8665C16.8665 9.40602 16.7804 8.8312 16.6439 8.28515L16.2558 8.38217ZM16.4665 10.0003C16.4665 10.556 16.386 11.0979 16.2558 11.6185L16.6439 11.7155C16.7804 11.1694 16.8665 10.5946 16.8665 10.0003H16.4665ZM12.3341 16.3954C12.8424 15.4551 13.2315 14.4396 13.5019 13.3833L13.1144 13.2841C12.8515 14.311 12.4739 15.2956 11.9822 16.2052L12.3341 16.3954ZM13.3082 13.5337H15.7665V13.1337H13.3082V13.5337ZM15.5936 13.2332C14.8103 14.5819 13.5677 15.6035 12.0931 16.1112L12.2233 16.4894C13.7888 15.9505 15.108 14.8659 15.9395 13.4341L15.5936 13.2332ZM11.9498 11.467H8.04984V11.867H11.9498V11.467ZM8.24758 11.637C8.16544 11.0949 8.1165 10.5551 8.1165 10.0003H7.7165C7.7165 10.5789 7.76757 11.1391 7.85209 11.697L8.24758 11.637ZM8.1165 10.0003C8.1165 9.44535 8.16548 8.89729 8.24751 8.36407L7.85216 8.30325C7.76753 8.85336 7.7165 9.42196 7.7165 10.0003H8.1165ZM8.04984 8.53366H11.9498V8.13366H8.04984V8.53366ZM11.7517 8.36109C11.8262 8.89877 11.8832 9.44685 11.8832 10.0003H12.2832C12.2832 9.42047 12.2235 8.85188 12.1479 8.30623L11.7517 8.36109ZM11.8832 10.0003C11.8832 10.5537 11.8262 11.0934 11.7517 11.64L12.148 11.694C12.2235 11.1406 12.2832 10.5803 12.2832 10.0003H11.8832ZM10.1643 16.5199C9.4832 15.5351 8.93526 14.4464 8.60042 13.2785L8.21592 13.3888C8.56442 14.6043 9.13314 15.7322 9.83535 16.7474L10.1643 16.5199ZM8.40817 13.5337H11.5915V13.1337H8.40817V13.5337ZM11.3993 13.2785C11.0644 14.4464 10.5165 15.5351 9.83535 16.5199L10.1643 16.7474C10.8665 15.7322 11.4353 14.6043 11.7838 13.3888L11.3993 13.2785ZM6.6665 6.46699H4.23317V6.86699H6.6665V6.46699ZM4.40669 6.76645C5.18153 5.41469 6.42271 4.39187 7.89764 3.88965L7.7687 3.511C6.20163 4.04459 4.88291 5.13132 4.05966 6.56753L4.40669 6.76645ZM7.65723 3.60522C7.14854 4.5463 6.76854 5.56082 6.47391 6.61307L6.8591 6.72092C7.1478 5.68983 7.5178 4.70435 8.00911 3.79543L7.65723 3.60522ZM4.23317 13.5337H6.6665V13.1337H4.23317V13.5337ZM6.47391 13.3876C6.76854 14.4398 7.14854 15.4544 7.65723 16.3954L8.00911 16.2052C7.5178 15.2963 7.1478 14.3108 6.8591 13.2797L6.47391 13.3876ZM7.89839 16.1113C6.42607 15.6033 5.18623 14.5816 4.40629 13.2335L4.06006 13.4338C4.88819 14.8652 6.20464 15.9501 7.76795 16.4894L7.89839 16.1113ZM3.74387 11.6185C3.61371 11.0979 3.53317 10.556 3.53317 10.0003H3.13317C3.13317 10.5946 3.2193 11.1694 3.35581 11.7155L3.74387 11.6185ZM3.53317 10.0003C3.53317 9.44463 3.61371 8.90278 3.74387 8.38217L3.35581 8.28515C3.2193 8.8312 3.13317 9.40602 3.13317 10.0003H3.53317ZM3.54984 8.53366H6.3665V8.13366H3.54984V8.53366ZM6.16796 8.30959C6.10085 8.86319 6.04984 9.42216 6.04984 10.0003H6.44984C6.44984 9.44516 6.49882 8.90412 6.56505 8.35773L6.16796 8.30959ZM6.04984 10.0003C6.04984 10.5785 6.10085 11.1375 6.16796 11.6911L6.56505 11.6429C6.49882 11.0965 6.44984 10.5555 6.44984 10.0003H6.04984ZM9.83535 3.47243C10.5162 4.45684 11.0643 5.55393 11.3993 6.72211L11.7838 6.61187C11.4354 5.39673 10.8668 4.26048 10.1643 3.24489L9.83535 3.47243ZM11.5915 6.46699H8.40817V6.86699H11.5915V6.46699ZM8.60042 6.72211C8.93536 5.55393 9.48344 4.45684 10.1643 3.47243L9.83535 3.24489C9.1329 4.26048 8.56432 5.39673 8.21592 6.61187L8.60042 6.72211ZM15.7665 6.46699H13.3082V6.86699H15.7665V6.46699ZM13.5021 6.61799C13.2373 5.57005 12.8451 4.55847 12.3344 3.60583L11.9819 3.79482C12.4772 4.71868 12.8575 5.6997 13.1143 6.71599L13.5021 6.61799ZM12.0934 3.88954C13.5807 4.39879 14.8174 5.4253 15.5934 6.76712L15.9396 6.56687C15.1156 5.14202 13.8023 4.05186 12.223 3.51111L12.0934 3.88954ZM9.99984 1.46699C5.28066 1.46699 1.4665 5.30693 1.4665 10.0003H1.8665C1.8665 5.52706 5.50235 1.86699 9.99984 1.86699V1.46699ZM1.4665 10.0003C1.4665 12.2635 2.36555 14.434 3.96586 16.0343L4.2487 15.7515C2.72341 14.2262 1.8665 12.1574 1.8665 10.0003H1.4665ZM3.96586 16.0343C4.75825 16.8267 5.69896 17.4553 6.73427 17.8841L6.88735 17.5145C5.90056 17.1058 5.00395 16.5067 4.2487 15.7515L3.96586 16.0343ZM6.73427 17.8841C7.76958 18.3129 8.87922 18.5337 9.99984 18.5337V18.1337C8.93175 18.1337 7.87413 17.9233 6.88735 17.5145L6.73427 17.8841ZM9.99984 18.5337C12.263 18.5337 14.4335 17.6346 16.0338 16.0343L15.751 15.7515C14.2257 17.2768 12.1569 18.1337 9.99984 18.1337V18.5337ZM16.0338 16.0343C17.6341 14.434 18.5332 12.2635 18.5332 10.0003H18.1332C18.1332 12.1574 17.2763 14.2262 15.751 15.7515L16.0338 16.0343ZM18.5332 10.0003C18.5332 8.87971 18.3125 7.77007 17.8836 6.73476L17.5141 6.88783C17.9228 7.87462 18.1332 8.93224 18.1332 10.0003H18.5332ZM17.8836 6.73476C17.4548 5.69945 16.8262 4.75874 16.0338 3.96635L15.751 4.24919C16.5062 5.00444 17.1053 5.90105 17.5141 6.88783L17.8836 6.73476ZM16.0338 3.96635C15.2414 3.17395 14.3007 2.54539 13.2654 2.11655L13.1123 2.48611C14.0991 2.89484 14.9957 3.49394 15.751 4.24919L16.0338 3.96635ZM13.2654 2.11655C12.2301 1.68771 11.1205 1.46699 9.99984 1.46699V1.86699C11.0679 1.86699 12.1255 2.07737 13.1123 2.48611L13.2654 2.11655Z" fill="#F4F5F6" mask="url(#path-1-inside-1_932_3971)"/>
</svg>
