<svg width="8" height="16" viewBox="0 0 8 16" fill="none" xmlns="http://www.w3.org/2000/svg">
<path d="M1.42638 15.2245C1.26805 15.2245 1.10972 15.1662 0.984717 15.0412C0.74305 14.7995 0.74305 14.3995 0.984717 14.1578L6.41808 8.7245C6.81808 8.3245 6.81808 7.6745 6.41808 7.2745L0.984717 1.84119C0.74305 1.59953 0.74305 1.19953 0.984717 0.957861C1.22638 0.716195 1.62638 0.716195 1.86805 0.957861L7.30142 6.39117C7.72642 6.81617 7.96808 7.39117 7.96808 7.9995C7.96808 8.60784 7.73475 9.18284 7.30142 9.60784L1.86805 15.0412C1.74305 15.1578 1.58472 15.2245 1.42638 15.2245Z" fill="#23262F"/>
</svg>
