<svg width="20" height="21" viewBox="0 0 20 21" fill="none" xmlns="http://www.w3.org/2000/svg">
<path d="M4.56798 2.49675C4.49419 2.40183 4.40104 2.3237 4.29474 2.26754C4.18843 2.21138 4.07139 2.17849 3.95139 2.17104C3.83139 2.16359 3.71118 2.18176 3.59875 2.22434C3.48631 2.26692 3.38422 2.33294 3.29926 2.41801L2.00679 3.71172C1.40305 4.31671 1.18056 5.17294 1.4443 5.92417C2.53895 9.03358 4.3196 11.8566 6.65418 14.184C8.98153 16.5185 11.8046 18.2992 14.914 19.3938C15.6652 19.6576 16.5214 19.4351 17.1264 18.8314L18.4189 17.5389C18.504 17.4539 18.57 17.3518 18.6126 17.2394C18.6551 17.127 18.6733 17.0068 18.6659 16.8868C18.6584 16.7668 18.6255 16.6497 18.5694 16.5434C18.5132 16.4371 18.4351 16.344 18.3401 16.2702L15.4565 14.0277C15.3551 13.9491 15.2371 13.8945 15.1115 13.8681C14.9859 13.8416 14.856 13.8441 14.7315 13.8752L11.994 14.559C11.6287 14.6503 11.2458 14.6454 10.8829 14.5449C10.5199 14.4444 10.1892 14.2515 9.92285 13.9852L6.85292 10.914C6.58639 10.6479 6.39334 10.3172 6.29258 9.9542C6.19181 9.59123 6.18677 9.20835 6.27794 8.84285L6.96292 6.10542C6.99405 5.98091 6.9965 5.85097 6.97009 5.72538C6.94367 5.59979 6.88907 5.48184 6.81042 5.38043L4.56798 2.49675ZM2.35553 1.47553C2.57427 1.25672 2.83705 1.08695 3.12644 0.977493C3.41582 0.868034 3.72518 0.821391 4.03397 0.840661C4.34276 0.859931 4.64392 0.944672 4.91744 1.08926C5.19097 1.23385 5.43061 1.43497 5.62045 1.67927L7.8629 4.5617C8.27414 5.09044 8.41913 5.77917 8.25664 6.42916L7.5729 9.16659C7.53755 9.30838 7.53946 9.45689 7.57845 9.59772C7.61743 9.73855 7.69217 9.8669 7.7954 9.97032L10.8666 13.0415C10.9701 13.1449 11.0987 13.2198 11.2398 13.2588C11.3808 13.2978 11.5296 13.2996 11.6716 13.264L14.4077 12.5803C14.7285 12.5001 15.0633 12.4938 15.3868 12.562C15.7103 12.6303 16.0141 12.7711 16.2752 12.974L19.1576 15.2164C20.1938 16.0227 20.2888 17.5539 19.3614 18.4801L18.0689 19.7726C17.1439 20.6976 15.7615 21.1038 14.4727 20.6501C11.1743 19.4895 8.17948 17.6012 5.71045 15.1252C3.23462 12.6565 1.34632 9.66215 0.185584 6.36416C-0.266905 5.07669 0.139335 3.69297 1.06431 2.768L2.35678 1.47553H2.35553Z" fill="#0D54BE"/>
</svg>
