<svg width="256" height="256" viewBox="0 0 256 256" fill="none" xmlns="http://www.w3.org/2000/svg">
<path d="M14.6286 0C10.7488 0 7.028 1.54122 4.28461 4.28461C1.54122 7.028 0 10.7488 0 14.6286V73.1429H73.1429V0H14.6286ZM54.8571 54.8571H18.2857V18.2857H54.8571V54.8571Z" fill="#23262F"/>
<path d="M0 241.371C0 245.251 1.54122 248.972 4.28461 251.715C7.028 254.459 10.7488 256 14.6286 256H73.1429V182.857H0V241.371ZM18.2857 201.143H54.8571V237.714H18.2857V201.143Z" fill="#23262F"/>
<path d="M182.857 256H241.372C245.251 256 248.972 254.459 251.716 251.715C254.459 248.972 256 245.251 256 241.371V182.857H182.857V256ZM201.143 201.143H237.715V237.714H201.143V201.143Z" fill="#23262F"/>
<path d="M241.372 0H182.857V73.1429H256V14.6286C256 10.7488 254.459 7.028 251.716 4.28461C248.972 1.54122 245.251 0 241.372 0ZM237.715 54.8571H201.143V18.2857H237.715V54.8571Z" fill="#23262F"/>
<path d="M146.286 54.8571V36.5714H109.715V73.1428H128.001V54.8571H146.286Z" fill="#23262F"/>
<path d="M73.1426 73.1428H91.4283V91.4285H73.1426V73.1428Z" fill="#23262F"/>
<path d="M91.4277 91.4286H127.999V109.714H91.4277V91.4286Z" fill="#23262F"/>
<path d="M146.285 18.2857V36.5714H164.571V0H91.4277V36.5714H109.713V18.2857H146.285Z" fill="#23262F"/>
<path d="M0 91.4286H18.2857V128H0V91.4286Z" fill="#23262F"/>
<path d="M73.1429 109.714V128H54.8571V91.4286H36.5714V128H18.2857V146.286H0V164.571H36.5714V146.286H54.8571V164.571H73.1429V146.286H91.4286V109.714H73.1429Z" fill="#23262F"/>
<path d="M146.286 109.714H164.571V128H182.857V109.714H201.143V91.4286H164.571V54.8572H146.286V73.1429H128V91.4286H146.286V109.714Z" fill="#23262F"/>
<path d="M127.999 237.714H91.4277V256H164.571V237.714H146.285V219.429H127.999V237.714Z" fill="#23262F"/>
<path d="M164.572 146.286V128H146.286V109.714H128.001V128H109.715V146.286H128.001V164.571H146.286V146.286H164.572Z" fill="#23262F"/>
<path d="M237.715 146.286H256.001V164.571H237.715V146.286Z" fill="#23262F"/>
<path d="M164.572 146.286H219.429V164.571H164.572V146.286Z" fill="#23262F"/>
<path d="M237.714 91.4286H219.428V109.714H201.143V128H219.428V146.286H237.714V128H256V109.714H237.714V91.4286Z" fill="#23262F"/>
<path d="M146.285 164.571H164.571V219.429H146.285V164.571Z" fill="#23262F"/>
<path d="M91.4277 219.429H109.713V201.143H127.999V182.857H109.713V146.286H91.4277V219.429Z" fill="#23262F"/>
</svg>
