<svg width="24" height="24" viewBox="0 0 24 24" fill="none" xmlns="http://www.w3.org/2000/svg">
<path d="M11.5343 21.0685C6.27879 21.0685 2 16.7897 2 11.5343C2 6.27879 6.27879 2 11.5343 2C16.7897 2 21.0685 6.27879 21.0685 11.5343C21.0685 16.7897 16.7897 21.0685 11.5343 21.0685ZM11.5343 3.39526C7.04153 3.39526 3.39526 7.05083 3.39526 11.5343C3.39526 16.0177 7.04153 19.6733 11.5343 19.6733C16.027 19.6733 19.6733 16.0177 19.6733 11.5343C19.6733 7.05083 16.027 3.39526 11.5343 3.39526Z" fill="#0D54BE"/>
<path d="M21.3008 22C21.124 22 20.9473 21.9349 20.8078 21.7953L18.9474 19.935C18.6777 19.6652 18.6777 19.2188 18.9474 18.949C19.2172 18.6793 19.6637 18.6793 19.9334 18.949L21.7938 20.8094C22.0635 21.0791 22.0635 21.5256 21.7938 21.7953C21.6542 21.9349 21.4775 22 21.3008 22Z" fill="#0D54BE"/>
</svg>
