<svg width="168" height="48" viewBox="0 0 168 48" fill="none" xmlns="http://www.w3.org/2000/svg">
<rect width="168" height="48" rx="8" fill="#23262F"/>
<path d="M42.2205 22.0811L37.8852 19.5771L33.4468 24.0155L37.8849 28.4536L42.2353 25.9413C42.9137 25.5291 43.3185 24.8091 43.3185 24.0155C43.3185 23.2219 42.9133 22.5019 42.2205 22.0811Z" fill="#FFCE00"/>
<path d="M33.4468 24.0152L21.3575 11.8389C20.937 12.2593 20.6816 12.8299 20.6816 13.4606V34.5326C20.6816 35.1633 20.937 35.7339 21.3575 36.1547L33.4468 24.0152Z" fill="url(#paint0_linear_932_4016)"/>
<path d="M33.4467 24.0153L37.8851 19.5769L37.8921 19.5699L31.9453 16.1459L24.1059 11.5385C23.4 11.103 22.544 11.088 21.823 11.4934C21.6579 11.5984 21.5075 11.7036 21.3574 11.8387L33.4467 24.0153Z" fill="#00F076"/>
<path d="M21.3574 36.1548C21.5075 36.2899 21.6579 36.3951 21.823 36.5001C22.1833 36.6953 22.559 36.8006 22.9344 36.8006C23.3398 36.8006 23.7302 36.6806 24.0909 36.4703L31.9449 31.8851L37.8918 28.4611L37.8848 28.454L33.4467 24.0156L21.3574 36.1548Z" fill="#F63448"/>
<path d="M59.4521 8.89062V16H58.5244V8.89062H59.4521ZM61.7373 8.89062V9.66211H56.2441V8.89062H61.7373ZM65.4639 15.0967V12.377C65.4639 12.1686 65.4215 11.988 65.3369 11.835C65.2555 11.6787 65.1318 11.5583 64.9658 11.4736C64.7998 11.389 64.5947 11.3467 64.3506 11.3467C64.1227 11.3467 63.9225 11.3857 63.75 11.4639C63.5807 11.542 63.4473 11.6445 63.3496 11.7715C63.2552 11.8984 63.208 12.0352 63.208 12.1816H62.3047C62.3047 11.9928 62.3535 11.8057 62.4512 11.6201C62.5488 11.4346 62.6888 11.2669 62.8711 11.1172C63.0566 10.9642 63.278 10.8438 63.5352 10.7559C63.7956 10.6647 64.0853 10.6191 64.4043 10.6191C64.7884 10.6191 65.127 10.6842 65.4199 10.8145C65.7161 10.9447 65.9473 11.1416 66.1133 11.4053C66.2826 11.6657 66.3672 11.9928 66.3672 12.3867V14.8477C66.3672 15.0234 66.3818 15.2106 66.4111 15.4092C66.4437 15.6077 66.4909 15.7786 66.5527 15.9219V16H65.6104C65.5648 15.8958 65.529 15.7575 65.5029 15.585C65.4769 15.4092 65.4639 15.2464 65.4639 15.0967ZM65.6201 12.7969L65.6299 13.4316H64.7168C64.4596 13.4316 64.2301 13.4528 64.0283 13.4951C63.8265 13.5342 63.6572 13.5944 63.5205 13.6758C63.3838 13.7572 63.2796 13.8597 63.208 13.9834C63.1364 14.1038 63.1006 14.2454 63.1006 14.4082C63.1006 14.5742 63.138 14.7256 63.2129 14.8623C63.2878 14.999 63.4001 15.1081 63.5498 15.1895C63.7028 15.2676 63.89 15.3066 64.1113 15.3066C64.388 15.3066 64.6322 15.248 64.8438 15.1309C65.0553 15.0137 65.223 14.8704 65.3467 14.7012C65.4736 14.5319 65.542 14.3675 65.5518 14.208L65.9375 14.6426C65.9147 14.7793 65.8529 14.9307 65.752 15.0967C65.651 15.2627 65.516 15.4222 65.3467 15.5752C65.1807 15.7249 64.9821 15.8503 64.751 15.9512C64.5231 16.0488 64.266 16.0977 63.9795 16.0977C63.6214 16.0977 63.3073 16.0277 63.0371 15.8877C62.7702 15.7477 62.5618 15.5605 62.4121 15.3262C62.2656 15.0885 62.1924 14.8232 62.1924 14.5303C62.1924 14.2471 62.2477 13.998 62.3584 13.7832C62.4691 13.5651 62.6286 13.3844 62.8369 13.2412C63.0452 13.0947 63.2959 12.984 63.5889 12.9092C63.8818 12.8343 64.209 12.7969 64.5703 12.7969H65.6201ZM64.8438 9.85742H64.1943L64.1895 9.11523C64.3555 9.10547 64.4906 9.08919 64.5947 9.06641C64.6989 9.04036 64.7754 9.00293 64.8242 8.9541C64.873 8.90202 64.8975 8.83366 64.8975 8.74902C64.8975 8.68066 64.8763 8.6237 64.834 8.57812C64.7917 8.5293 64.7331 8.49023 64.6582 8.46094C64.5833 8.42839 64.4971 8.4056 64.3994 8.39258C64.3018 8.37956 64.1976 8.37305 64.0869 8.37305L64.1211 7.85547C64.362 7.85547 64.5736 7.87663 64.7559 7.91895C64.9414 7.96126 65.096 8.02311 65.2197 8.10449C65.3467 8.18587 65.4411 8.28353 65.5029 8.39746C65.568 8.50814 65.6006 8.63184 65.6006 8.76855C65.6006 9.01595 65.5225 9.19661 65.3662 9.31055C65.21 9.42122 65.0374 9.48958 64.8486 9.51562L64.8438 9.85742ZM69.0195 10.7168V16H68.1113V10.7168H69.0195ZM68.043 9.31543C68.043 9.16895 68.0869 9.04525 68.1748 8.94434C68.266 8.84342 68.3994 8.79297 68.5752 8.79297C68.7477 8.79297 68.8796 8.84342 68.9707 8.94434C69.0651 9.04525 69.1123 9.16895 69.1123 9.31543C69.1123 9.4554 69.0651 9.57585 68.9707 9.67676C68.8796 9.77441 68.7477 9.82324 68.5752 9.82324C68.3994 9.82324 68.266 9.77441 68.1748 9.67676C68.0869 9.57585 68.043 9.4554 68.043 9.31543ZM75.0566 15.1846L76.502 10.7168H77.4248L75.5254 16H74.9199L75.0566 15.1846ZM73.8506 10.7168L75.3398 15.209L75.4424 16H74.8369L72.9229 10.7168H73.8506ZM80.668 16.0977C80.3001 16.0977 79.9665 16.0358 79.667 15.9121C79.3708 15.7852 79.1152 15.6077 78.9004 15.3799C78.6888 15.152 78.526 14.8818 78.4121 14.5693C78.2982 14.2568 78.2412 13.915 78.2412 13.5439V13.3389C78.2412 12.9092 78.3047 12.5267 78.4316 12.1914C78.5586 11.8529 78.7311 11.5664 78.9492 11.332C79.1673 11.0977 79.4147 10.9202 79.6914 10.7998C79.9681 10.6794 80.2546 10.6191 80.5508 10.6191C80.9284 10.6191 81.2539 10.6842 81.5273 10.8145C81.804 10.9447 82.0303 11.127 82.2061 11.3613C82.3818 11.5924 82.512 11.8659 82.5967 12.1816C82.6813 12.4941 82.7236 12.8359 82.7236 13.207V13.6123H78.7783V12.875H81.8203V12.8066C81.8073 12.5723 81.7585 12.3444 81.6738 12.123C81.5924 11.9017 81.4622 11.7194 81.2832 11.5762C81.1042 11.4329 80.86 11.3613 80.5508 11.3613C80.3457 11.3613 80.1569 11.4053 79.9844 11.4932C79.8118 11.5778 79.6637 11.7048 79.54 11.874C79.4163 12.0433 79.3203 12.25 79.252 12.4941C79.1836 12.7383 79.1494 13.0199 79.1494 13.3389V13.5439C79.1494 13.7946 79.1836 14.0306 79.252 14.252C79.3236 14.4701 79.4261 14.6621 79.5596 14.8281C79.6963 14.9941 79.8607 15.1243 80.0527 15.2188C80.248 15.3132 80.4694 15.3604 80.7168 15.3604C81.0358 15.3604 81.306 15.2952 81.5273 15.165C81.7487 15.0348 81.9424 14.8607 82.1084 14.6426L82.6553 15.0771C82.5413 15.2497 82.3965 15.4141 82.2207 15.5703C82.0449 15.7266 81.8285 15.8535 81.5713 15.9512C81.3174 16.0488 81.0163 16.0977 80.668 16.0977ZM80.9023 8.67578L82.3281 9.95996H81.3613L80.5312 9.18359L79.7061 9.95996H78.7441L80.1602 8.67578H80.9023ZM78.4121 7.83105L79.1055 9.09082H78.417L77.4355 7.83105H78.4121ZM88.9707 10.7168V11.4102H86.1143V10.7168H88.9707ZM87.0811 9.43262H87.9844V14.6914C87.9844 14.8704 88.012 15.0055 88.0674 15.0967C88.1227 15.1878 88.1943 15.248 88.2822 15.2773C88.3701 15.3066 88.4645 15.3213 88.5654 15.3213C88.6403 15.3213 88.7184 15.3148 88.7998 15.3018C88.8844 15.2855 88.9479 15.2725 88.9902 15.2627L88.9951 16C88.9235 16.0228 88.8291 16.0439 88.7119 16.0635C88.598 16.0863 88.4596 16.0977 88.2969 16.0977C88.0755 16.0977 87.8721 16.0537 87.6865 15.9658C87.501 15.8779 87.3529 15.7314 87.2422 15.5264C87.1348 15.318 87.0811 15.0381 87.0811 14.6865V9.43262ZM91.1836 11.5469V16H90.2803V10.7168H91.1592L91.1836 11.5469ZM92.834 10.6875L92.8291 11.5273C92.7542 11.5111 92.6826 11.5013 92.6143 11.498C92.5492 11.4915 92.4743 11.4883 92.3896 11.4883C92.1813 11.4883 91.9974 11.5208 91.8379 11.5859C91.6784 11.651 91.5433 11.7422 91.4326 11.8594C91.3219 11.9766 91.234 12.1165 91.1689 12.2793C91.1071 12.4388 91.0664 12.6146 91.0469 12.8066L90.793 12.9531C90.793 12.6341 90.8239 12.3346 90.8857 12.0547C90.9508 11.7747 91.0501 11.5273 91.1836 11.3125C91.3171 11.0944 91.4863 10.9251 91.6914 10.8047C91.8997 10.681 92.1471 10.6191 92.4336 10.6191C92.4987 10.6191 92.5736 10.6273 92.6582 10.6436C92.7428 10.6566 92.8014 10.6712 92.834 10.6875ZM96.0137 16.0977C95.6458 16.0977 95.3122 16.0358 95.0127 15.9121C94.7165 15.7852 94.4609 15.6077 94.2461 15.3799C94.0345 15.152 93.8717 14.8818 93.7578 14.5693C93.6439 14.2568 93.5869 13.915 93.5869 13.5439V13.3389C93.5869 12.9092 93.6504 12.5267 93.7773 12.1914C93.9043 11.8529 94.0768 11.5664 94.2949 11.332C94.513 11.0977 94.7604 10.9202 95.0371 10.7998C95.3138 10.6794 95.6003 10.6191 95.8965 10.6191C96.2741 10.6191 96.5996 10.6842 96.873 10.8145C97.1497 10.9447 97.376 11.127 97.5518 11.3613C97.7275 11.5924 97.8577 11.8659 97.9424 12.1816C98.027 12.4941 98.0693 12.8359 98.0693 13.207V13.6123H94.124V12.875H97.166V12.8066C97.153 12.5723 97.1042 12.3444 97.0195 12.123C96.9382 11.9017 96.8079 11.7194 96.6289 11.5762C96.4499 11.4329 96.2057 11.3613 95.8965 11.3613C95.6914 11.3613 95.5026 11.4053 95.3301 11.4932C95.1576 11.5778 95.0094 11.7048 94.8857 11.874C94.762 12.0433 94.666 12.25 94.5977 12.4941C94.5293 12.7383 94.4951 13.0199 94.4951 13.3389V13.5439C94.4951 13.7946 94.5293 14.0306 94.5977 14.252C94.6693 14.4701 94.7718 14.6621 94.9053 14.8281C95.042 14.9941 95.2064 15.1243 95.3984 15.2188C95.5938 15.3132 95.8151 15.3604 96.0625 15.3604C96.3815 15.3604 96.6517 15.2952 96.873 15.165C97.0944 15.0348 97.2881 14.8607 97.4541 14.6426L98.001 15.0771C97.887 15.2497 97.7422 15.4141 97.5664 15.5703C97.3906 15.7266 97.1742 15.8535 96.917 15.9512C96.6631 16.0488 96.362 16.0977 96.0137 16.0977ZM96.165 8.5L97.376 9.83301V9.88184H96.624L95.8916 9.05664L95.1641 9.88184H94.4219V9.82812L95.6182 8.5H96.165ZM100.277 11.8447V16H99.374V10.7168H100.229L100.277 11.8447ZM100.062 13.1582L99.6865 13.1436C99.6898 12.7822 99.7435 12.4486 99.8477 12.1426C99.9518 11.8333 100.098 11.5648 100.287 11.3369C100.476 11.109 100.701 10.9333 100.961 10.8096C101.225 10.6826 101.516 10.6191 101.835 10.6191C102.095 10.6191 102.33 10.6549 102.538 10.7266C102.746 10.7949 102.924 10.9056 103.07 11.0586C103.22 11.2116 103.334 11.4102 103.412 11.6543C103.49 11.8952 103.529 12.1898 103.529 12.5381V16H102.621V12.5283C102.621 12.2516 102.58 12.0303 102.499 11.8643C102.418 11.695 102.299 11.5729 102.143 11.498C101.986 11.4199 101.794 11.3809 101.566 11.3809C101.342 11.3809 101.137 11.4281 100.951 11.5225C100.769 11.6169 100.611 11.7471 100.478 11.9131C100.347 12.0791 100.245 12.2695 100.17 12.4844C100.098 12.696 100.062 12.9206 100.062 13.1582Z" fill="white"/>
<path d="M64.6543 32.9141V36.7148C64.513 36.9017 64.292 37.1068 63.9912 37.3301C63.695 37.5488 63.3008 37.738 62.8086 37.8975C62.3164 38.057 61.7035 38.1367 60.9697 38.1367C60.3454 38.1367 59.7734 38.0319 59.2539 37.8223C58.7344 37.6081 58.2855 37.2959 57.9072 36.8857C57.5335 36.4756 57.2441 35.9766 57.0391 35.3887C56.834 34.7962 56.7314 34.1217 56.7314 33.3652V32.6748C56.7314 31.9229 56.8249 31.2529 57.0117 30.665C57.2031 30.0726 57.4766 29.5713 57.832 29.1611C58.1875 28.751 58.6159 28.4411 59.1172 28.2314C59.623 28.0173 60.195 27.9102 60.833 27.9102C61.6488 27.9102 62.3232 28.0469 62.8564 28.3203C63.3942 28.5892 63.8089 28.9629 64.1006 29.4414C64.3923 29.9199 64.5768 30.4668 64.6543 31.082H62.9727C62.918 30.7357 62.8109 30.4258 62.6514 30.1523C62.4964 29.8789 62.2731 29.6647 61.9814 29.5098C61.6943 29.3503 61.3206 29.2705 60.8604 29.2705C60.4639 29.2705 60.1152 29.3457 59.8145 29.4961C59.5137 29.6465 59.263 29.8675 59.0625 30.1592C58.8665 30.4508 58.7184 30.8063 58.6182 31.2256C58.5179 31.6449 58.4678 32.1234 58.4678 32.6611V33.3652C58.4678 33.9121 58.5247 34.3975 58.6387 34.8213C58.7572 35.2451 58.9258 35.6029 59.1445 35.8945C59.3678 36.1862 59.639 36.4072 59.958 36.5576C60.277 36.7035 60.637 36.7764 61.0381 36.7764C61.43 36.7764 61.7513 36.7445 62.002 36.6807C62.2526 36.6123 62.4508 36.5326 62.5967 36.4414C62.7471 36.3457 62.8633 36.2546 62.9453 36.168V34.1924H60.874V32.9141H64.6543ZM74.9912 32.75V33.2969C74.9912 34.0488 74.8932 34.7233 74.6973 35.3203C74.5013 35.9173 74.221 36.4255 73.8564 36.8447C73.4964 37.264 73.0635 37.5853 72.5576 37.8086C72.0518 38.0273 71.4912 38.1367 70.876 38.1367C70.2653 38.1367 69.707 38.0273 69.2012 37.8086C68.6999 37.5853 68.2646 37.264 67.8955 36.8447C67.5264 36.4255 67.2393 35.9173 67.0342 35.3203C66.8337 34.7233 66.7334 34.0488 66.7334 33.2969V32.75C66.7334 31.998 66.8337 31.3258 67.0342 30.7334C67.2347 30.1364 67.5173 29.6283 67.8818 29.209C68.251 28.7852 68.6862 28.4639 69.1875 28.2451C69.6934 28.0218 70.2516 27.9102 70.8623 27.9102C71.4775 27.9102 72.0381 28.0218 72.5439 28.2451C73.0498 28.4639 73.485 28.7852 73.8496 29.209C74.2142 29.6283 74.4945 30.1364 74.6904 30.7334C74.891 31.3258 74.9912 31.998 74.9912 32.75ZM73.2754 33.2969V32.7363C73.2754 32.1803 73.2207 31.6904 73.1113 31.2666C73.0065 30.8382 72.8493 30.4805 72.6396 30.1934C72.4346 29.9017 72.1816 29.6829 71.8809 29.5371C71.5801 29.3867 71.2406 29.3115 70.8623 29.3115C70.484 29.3115 70.1468 29.3867 69.8506 29.5371C69.5544 29.6829 69.3014 29.9017 69.0918 30.1934C68.8867 30.4805 68.7295 30.8382 68.6201 31.2666C68.5107 31.6904 68.4561 32.1803 68.4561 32.7363V33.2969C68.4561 33.8529 68.5107 34.3451 68.6201 34.7734C68.7295 35.2018 68.889 35.5641 69.0986 35.8604C69.3128 36.152 69.568 36.373 69.8643 36.5234C70.1605 36.6693 70.4977 36.7422 70.876 36.7422C71.2588 36.7422 71.5983 36.6693 71.8945 36.5234C72.1908 36.373 72.4414 36.152 72.6465 35.8604C72.8516 35.5641 73.0065 35.2018 73.1113 34.7734C73.2207 34.3451 73.2754 33.8529 73.2754 33.2969ZM85.1436 32.75V33.2969C85.1436 34.0488 85.0456 34.7233 84.8496 35.3203C84.6536 35.9173 84.3734 36.4255 84.0088 36.8447C83.6488 37.264 83.2158 37.5853 82.71 37.8086C82.2041 38.0273 81.6436 38.1367 81.0283 38.1367C80.4176 38.1367 79.8594 38.0273 79.3535 37.8086C78.8522 37.5853 78.417 37.264 78.0479 36.8447C77.6787 36.4255 77.3916 35.9173 77.1865 35.3203C76.986 34.7233 76.8857 34.0488 76.8857 33.2969V32.75C76.8857 31.998 76.986 31.3258 77.1865 30.7334C77.387 30.1364 77.6696 29.6283 78.0342 29.209C78.4033 28.7852 78.8385 28.4639 79.3398 28.2451C79.8457 28.0218 80.404 27.9102 81.0146 27.9102C81.6299 27.9102 82.1904 28.0218 82.6963 28.2451C83.2021 28.4639 83.6374 28.7852 84.002 29.209C84.3665 29.6283 84.6468 30.1364 84.8428 30.7334C85.0433 31.3258 85.1436 31.998 85.1436 32.75ZM83.4277 33.2969V32.7363C83.4277 32.1803 83.373 31.6904 83.2637 31.2666C83.1589 30.8382 83.0016 30.4805 82.792 30.1934C82.5869 29.9017 82.334 29.6829 82.0332 29.5371C81.7324 29.3867 81.3929 29.3115 81.0146 29.3115C80.6364 29.3115 80.2992 29.3867 80.0029 29.5371C79.7067 29.6829 79.4538 29.9017 79.2441 30.1934C79.0391 30.4805 78.8818 30.8382 78.7725 31.2666C78.6631 31.6904 78.6084 32.1803 78.6084 32.7363V33.2969C78.6084 33.8529 78.6631 34.3451 78.7725 34.7734C78.8818 35.2018 79.0413 35.5641 79.251 35.8604C79.4652 36.152 79.7204 36.373 80.0166 36.5234C80.3128 36.6693 80.6501 36.7422 81.0283 36.7422C81.4111 36.7422 81.7507 36.6693 82.0469 36.5234C82.3431 36.373 82.5938 36.152 82.7988 35.8604C83.0039 35.5641 83.1589 35.2018 83.2637 34.7734C83.373 34.3451 83.4277 33.8529 83.4277 33.2969ZM95.002 32.9141V36.7148C94.8607 36.9017 94.6396 37.1068 94.3389 37.3301C94.0426 37.5488 93.6484 37.738 93.1562 37.8975C92.6641 38.057 92.0511 38.1367 91.3174 38.1367C90.693 38.1367 90.1211 38.0319 89.6016 37.8223C89.082 37.6081 88.6331 37.2959 88.2549 36.8857C87.8812 36.4756 87.5918 35.9766 87.3867 35.3887C87.1816 34.7962 87.0791 34.1217 87.0791 33.3652V32.6748C87.0791 31.9229 87.1725 31.2529 87.3594 30.665C87.5508 30.0726 87.8242 29.5713 88.1797 29.1611C88.5352 28.751 88.9635 28.4411 89.4648 28.2314C89.9707 28.0173 90.5426 27.9102 91.1807 27.9102C91.9964 27.9102 92.6709 28.0469 93.2041 28.3203C93.7419 28.5892 94.1566 28.9629 94.4482 29.4414C94.7399 29.9199 94.9245 30.4668 95.002 31.082H93.3203C93.2656 30.7357 93.1585 30.4258 92.999 30.1523C92.8441 29.8789 92.6208 29.6647 92.3291 29.5098C92.042 29.3503 91.6683 29.2705 91.208 29.2705C90.8115 29.2705 90.4629 29.3457 90.1621 29.4961C89.8613 29.6465 89.6107 29.8675 89.4102 30.1592C89.2142 30.4508 89.0661 30.8063 88.9658 31.2256C88.8656 31.6449 88.8154 32.1234 88.8154 32.6611V33.3652C88.8154 33.9121 88.8724 34.3975 88.9863 34.8213C89.1048 35.2451 89.2734 35.6029 89.4922 35.8945C89.7155 36.1862 89.9867 36.4072 90.3057 36.5576C90.6247 36.7035 90.9847 36.7764 91.3857 36.7764C91.7777 36.7764 92.099 36.7445 92.3496 36.6807C92.6003 36.6123 92.7985 36.5326 92.9443 36.4414C93.0947 36.3457 93.2109 36.2546 93.293 36.168V34.1924H91.2217V32.9141H95.002ZM103.637 36.6396V38H98.6396V36.6396H103.637ZM99.1182 28.0469V38H97.4023V28.0469H99.1182ZM111.978 36.6396V38H106.693V36.6396H111.978ZM107.179 28.0469V38H105.463V28.0469H107.179ZM111.287 32.2031V33.543H106.693V32.2031H111.287ZM111.943 28.0469V29.4141H106.693V28.0469H111.943ZM121.646 34.2881H119.055V32.9277H121.646C122.097 32.9277 122.461 32.8548 122.739 32.709C123.017 32.5632 123.22 32.3626 123.348 32.1074C123.48 31.8477 123.546 31.5514 123.546 31.2188C123.546 30.9043 123.48 30.6104 123.348 30.3369C123.22 30.0589 123.017 29.8356 122.739 29.667C122.461 29.4984 122.097 29.4141 121.646 29.4141H119.581V38H117.865V28.0469H121.646C122.416 28.0469 123.07 28.1836 123.607 28.457C124.15 28.7259 124.562 29.0996 124.845 29.5781C125.127 30.0521 125.269 30.5944 125.269 31.2051C125.269 31.8477 125.127 32.3991 124.845 32.8594C124.562 33.3197 124.15 33.6729 123.607 33.9189C123.07 34.165 122.416 34.2881 121.646 34.2881ZM133.541 36.6396V38H128.544V36.6396H133.541ZM129.022 28.0469V38H127.307V28.0469H129.022ZM139.38 29.373L136.406 38H134.608L138.354 28.0469H139.503L139.38 29.373ZM141.868 38L138.888 29.373L138.758 28.0469H139.913L143.673 38H141.868ZM141.725 34.3086V35.6689H136.311V34.3086H141.725ZM145.458 28.0469L147.769 32.7979L150.079 28.0469H151.979L148.63 34.3359V38H146.9V34.3359L143.551 28.0469H145.458Z" fill="white"/>
<defs>
<linearGradient id="paint0_linear_932_4016" x1="15.2788" y1="30.0757" x2="27.4365" y2="17.9176" gradientUnits="userSpaceOnUse">
<stop stop-color="#00E2FF"/>
<stop offset="1" stop-color="#00C5FF"/>
</linearGradient>
</defs>
</svg>
