<svg width="168" height="48" viewBox="0 0 168 48" fill="none" xmlns="http://www.w3.org/2000/svg">
<rect width="168" height="48" rx="8" fill="#23262F"/>
<g clip-path="url(#clip0_932_4010)">
<path d="M45.0558 32.9377C44.5718 34.0557 43.999 35.0848 43.3353 36.031C42.4307 37.3208 41.69 38.2136 41.1191 38.7094C40.2342 39.5232 39.2861 39.94 38.2708 39.9637C37.542 39.9637 36.663 39.7563 35.6398 39.3356C34.6133 38.9168 33.6699 38.7094 32.8073 38.7094C31.9026 38.7094 30.9324 38.9168 29.8946 39.3356C28.8552 39.7563 28.0179 39.9755 27.3777 39.9973C26.4041 40.0387 25.4337 39.6101 24.465 38.7094C23.8468 38.1702 23.0735 37.2457 22.1471 35.9361C21.1531 34.5377 20.336 32.916 19.6958 31.0672C19.0102 29.0702 18.6665 27.1364 18.6665 25.2643C18.6665 23.1197 19.1299 21.2701 20.0581 19.7201C20.7875 18.4751 21.758 17.4931 22.9725 16.7721C24.1871 16.0511 25.4995 15.6837 26.9128 15.6602C27.6861 15.6602 28.7002 15.8994 29.9604 16.3695C31.217 16.8412 32.0239 17.0804 32.3777 17.0804C32.6422 17.0804 33.5385 16.8007 35.0581 16.2431C36.4951 15.726 37.7079 15.5119 38.7014 15.5962C41.3937 15.8135 43.4163 16.8748 44.7615 18.7868C42.3536 20.2458 41.1626 22.2892 41.1863 24.9105C41.208 26.9523 41.9487 28.6514 43.4045 30.0005C44.0642 30.6267 44.801 31.1106 45.6207 31.4543C45.4429 31.9699 45.2553 32.4637 45.0558 32.9377ZM38.8812 8.64018C38.8812 10.2405 38.2965 11.7348 37.1311 13.1179C35.7247 14.7621 34.0236 15.7122 32.179 15.5622C32.1555 15.3703 32.1418 15.1682 32.1418 14.9558C32.1418 13.4195 32.8106 11.7753 33.9984 10.4309C34.5913 9.75027 35.3455 9.1843 36.26 8.73282C37.1726 8.28807 38.0358 8.04212 38.8476 8C38.8713 8.21394 38.8812 8.4279 38.8812 8.64016V8.64018Z" fill="white"/>
</g>
<path d="M59.4521 8.89062V16H58.5244V8.89062H59.4521ZM61.7373 8.89062V9.66211H56.2441V8.89062H61.7373ZM65.4639 15.0967V12.377C65.4639 12.1686 65.4215 11.988 65.3369 11.835C65.2555 11.6787 65.1318 11.5583 64.9658 11.4736C64.7998 11.389 64.5947 11.3467 64.3506 11.3467C64.1227 11.3467 63.9225 11.3857 63.75 11.4639C63.5807 11.542 63.4473 11.6445 63.3496 11.7715C63.2552 11.8984 63.208 12.0352 63.208 12.1816H62.3047C62.3047 11.9928 62.3535 11.8057 62.4512 11.6201C62.5488 11.4346 62.6888 11.2669 62.8711 11.1172C63.0566 10.9642 63.278 10.8438 63.5352 10.7559C63.7956 10.6647 64.0853 10.6191 64.4043 10.6191C64.7884 10.6191 65.127 10.6842 65.4199 10.8145C65.7161 10.9447 65.9473 11.1416 66.1133 11.4053C66.2826 11.6657 66.3672 11.9928 66.3672 12.3867V14.8477C66.3672 15.0234 66.3818 15.2106 66.4111 15.4092C66.4437 15.6077 66.4909 15.7786 66.5527 15.9219V16H65.6104C65.5648 15.8958 65.529 15.7575 65.5029 15.585C65.4769 15.4092 65.4639 15.2464 65.4639 15.0967ZM65.6201 12.7969L65.6299 13.4316H64.7168C64.4596 13.4316 64.2301 13.4528 64.0283 13.4951C63.8265 13.5342 63.6572 13.5944 63.5205 13.6758C63.3838 13.7572 63.2796 13.8597 63.208 13.9834C63.1364 14.1038 63.1006 14.2454 63.1006 14.4082C63.1006 14.5742 63.138 14.7256 63.2129 14.8623C63.2878 14.999 63.4001 15.1081 63.5498 15.1895C63.7028 15.2676 63.89 15.3066 64.1113 15.3066C64.388 15.3066 64.6322 15.248 64.8438 15.1309C65.0553 15.0137 65.223 14.8704 65.3467 14.7012C65.4736 14.5319 65.542 14.3675 65.5518 14.208L65.9375 14.6426C65.9147 14.7793 65.8529 14.9307 65.752 15.0967C65.651 15.2627 65.516 15.4222 65.3467 15.5752C65.1807 15.7249 64.9821 15.8503 64.751 15.9512C64.5231 16.0488 64.266 16.0977 63.9795 16.0977C63.6214 16.0977 63.3073 16.0277 63.0371 15.8877C62.7702 15.7477 62.5618 15.5605 62.4121 15.3262C62.2656 15.0885 62.1924 14.8232 62.1924 14.5303C62.1924 14.2471 62.2477 13.998 62.3584 13.7832C62.4691 13.5651 62.6286 13.3844 62.8369 13.2412C63.0452 13.0947 63.2959 12.984 63.5889 12.9092C63.8818 12.8343 64.209 12.7969 64.5703 12.7969H65.6201ZM64.8438 9.85742H64.1943L64.1895 9.11523C64.3555 9.10547 64.4906 9.08919 64.5947 9.06641C64.6989 9.04036 64.7754 9.00293 64.8242 8.9541C64.873 8.90202 64.8975 8.83366 64.8975 8.74902C64.8975 8.68066 64.8763 8.6237 64.834 8.57812C64.7917 8.5293 64.7331 8.49023 64.6582 8.46094C64.5833 8.42839 64.4971 8.4056 64.3994 8.39258C64.3018 8.37956 64.1976 8.37305 64.0869 8.37305L64.1211 7.85547C64.362 7.85547 64.5736 7.87663 64.7559 7.91895C64.9414 7.96126 65.096 8.02311 65.2197 8.10449C65.3467 8.18587 65.4411 8.28353 65.5029 8.39746C65.568 8.50814 65.6006 8.63184 65.6006 8.76855C65.6006 9.01595 65.5225 9.19661 65.3662 9.31055C65.21 9.42122 65.0374 9.48958 64.8486 9.51562L64.8438 9.85742ZM69.0195 10.7168V16H68.1113V10.7168H69.0195ZM68.043 9.31543C68.043 9.16895 68.0869 9.04525 68.1748 8.94434C68.266 8.84342 68.3994 8.79297 68.5752 8.79297C68.7477 8.79297 68.8796 8.84342 68.9707 8.94434C69.0651 9.04525 69.1123 9.16895 69.1123 9.31543C69.1123 9.4554 69.0651 9.57585 68.9707 9.67676C68.8796 9.77441 68.7477 9.82324 68.5752 9.82324C68.3994 9.82324 68.266 9.77441 68.1748 9.67676C68.0869 9.57585 68.043 9.4554 68.043 9.31543ZM75.0566 15.1846L76.502 10.7168H77.4248L75.5254 16H74.9199L75.0566 15.1846ZM73.8506 10.7168L75.3398 15.209L75.4424 16H74.8369L72.9229 10.7168H73.8506ZM80.668 16.0977C80.3001 16.0977 79.9665 16.0358 79.667 15.9121C79.3708 15.7852 79.1152 15.6077 78.9004 15.3799C78.6888 15.152 78.526 14.8818 78.4121 14.5693C78.2982 14.2568 78.2412 13.915 78.2412 13.5439V13.3389C78.2412 12.9092 78.3047 12.5267 78.4316 12.1914C78.5586 11.8529 78.7311 11.5664 78.9492 11.332C79.1673 11.0977 79.4147 10.9202 79.6914 10.7998C79.9681 10.6794 80.2546 10.6191 80.5508 10.6191C80.9284 10.6191 81.2539 10.6842 81.5273 10.8145C81.804 10.9447 82.0303 11.127 82.2061 11.3613C82.3818 11.5924 82.512 11.8659 82.5967 12.1816C82.6813 12.4941 82.7236 12.8359 82.7236 13.207V13.6123H78.7783V12.875H81.8203V12.8066C81.8073 12.5723 81.7585 12.3444 81.6738 12.123C81.5924 11.9017 81.4622 11.7194 81.2832 11.5762C81.1042 11.4329 80.86 11.3613 80.5508 11.3613C80.3457 11.3613 80.1569 11.4053 79.9844 11.4932C79.8118 11.5778 79.6637 11.7048 79.54 11.874C79.4163 12.0433 79.3203 12.25 79.252 12.4941C79.1836 12.7383 79.1494 13.0199 79.1494 13.3389V13.5439C79.1494 13.7946 79.1836 14.0306 79.252 14.252C79.3236 14.4701 79.4261 14.6621 79.5596 14.8281C79.6963 14.9941 79.8607 15.1243 80.0527 15.2188C80.248 15.3132 80.4694 15.3604 80.7168 15.3604C81.0358 15.3604 81.306 15.2952 81.5273 15.165C81.7487 15.0348 81.9424 14.8607 82.1084 14.6426L82.6553 15.0771C82.5413 15.2497 82.3965 15.4141 82.2207 15.5703C82.0449 15.7266 81.8285 15.8535 81.5713 15.9512C81.3174 16.0488 81.0163 16.0977 80.668 16.0977ZM80.9023 8.67578L82.3281 9.95996H81.3613L80.5312 9.18359L79.7061 9.95996H78.7441L80.1602 8.67578H80.9023ZM78.4121 7.83105L79.1055 9.09082H78.417L77.4355 7.83105H78.4121ZM88.9707 10.7168V11.4102H86.1143V10.7168H88.9707ZM87.0811 9.43262H87.9844V14.6914C87.9844 14.8704 88.012 15.0055 88.0674 15.0967C88.1227 15.1878 88.1943 15.248 88.2822 15.2773C88.3701 15.3066 88.4645 15.3213 88.5654 15.3213C88.6403 15.3213 88.7184 15.3148 88.7998 15.3018C88.8844 15.2855 88.9479 15.2725 88.9902 15.2627L88.9951 16C88.9235 16.0228 88.8291 16.0439 88.7119 16.0635C88.598 16.0863 88.4596 16.0977 88.2969 16.0977C88.0755 16.0977 87.8721 16.0537 87.6865 15.9658C87.501 15.8779 87.3529 15.7314 87.2422 15.5264C87.1348 15.318 87.0811 15.0381 87.0811 14.6865V9.43262ZM91.1836 11.5469V16H90.2803V10.7168H91.1592L91.1836 11.5469ZM92.834 10.6875L92.8291 11.5273C92.7542 11.5111 92.6826 11.5013 92.6143 11.498C92.5492 11.4915 92.4743 11.4883 92.3896 11.4883C92.1813 11.4883 91.9974 11.5208 91.8379 11.5859C91.6784 11.651 91.5433 11.7422 91.4326 11.8594C91.3219 11.9766 91.234 12.1165 91.1689 12.2793C91.1071 12.4388 91.0664 12.6146 91.0469 12.8066L90.793 12.9531C90.793 12.6341 90.8239 12.3346 90.8857 12.0547C90.9508 11.7747 91.0501 11.5273 91.1836 11.3125C91.3171 11.0944 91.4863 10.9251 91.6914 10.8047C91.8997 10.681 92.1471 10.6191 92.4336 10.6191C92.4987 10.6191 92.5736 10.6273 92.6582 10.6436C92.7428 10.6566 92.8014 10.6712 92.834 10.6875ZM96.0137 16.0977C95.6458 16.0977 95.3122 16.0358 95.0127 15.9121C94.7165 15.7852 94.4609 15.6077 94.2461 15.3799C94.0345 15.152 93.8717 14.8818 93.7578 14.5693C93.6439 14.2568 93.5869 13.915 93.5869 13.5439V13.3389C93.5869 12.9092 93.6504 12.5267 93.7773 12.1914C93.9043 11.8529 94.0768 11.5664 94.2949 11.332C94.513 11.0977 94.7604 10.9202 95.0371 10.7998C95.3138 10.6794 95.6003 10.6191 95.8965 10.6191C96.2741 10.6191 96.5996 10.6842 96.873 10.8145C97.1497 10.9447 97.376 11.127 97.5518 11.3613C97.7275 11.5924 97.8577 11.8659 97.9424 12.1816C98.027 12.4941 98.0693 12.8359 98.0693 13.207V13.6123H94.124V12.875H97.166V12.8066C97.153 12.5723 97.1042 12.3444 97.0195 12.123C96.9382 11.9017 96.8079 11.7194 96.6289 11.5762C96.4499 11.4329 96.2057 11.3613 95.8965 11.3613C95.6914 11.3613 95.5026 11.4053 95.3301 11.4932C95.1576 11.5778 95.0094 11.7048 94.8857 11.874C94.762 12.0433 94.666 12.25 94.5977 12.4941C94.5293 12.7383 94.4951 13.0199 94.4951 13.3389V13.5439C94.4951 13.7946 94.5293 14.0306 94.5977 14.252C94.6693 14.4701 94.7718 14.6621 94.9053 14.8281C95.042 14.9941 95.2064 15.1243 95.3984 15.2188C95.5938 15.3132 95.8151 15.3604 96.0625 15.3604C96.3815 15.3604 96.6517 15.2952 96.873 15.165C97.0944 15.0348 97.2881 14.8607 97.4541 14.6426L98.001 15.0771C97.887 15.2497 97.7422 15.4141 97.5664 15.5703C97.3906 15.7266 97.1742 15.8535 96.917 15.9512C96.6631 16.0488 96.362 16.0977 96.0137 16.0977ZM96.165 8.5L97.376 9.83301V9.88184H96.624L95.8916 9.05664L95.1641 9.88184H94.4219V9.82812L95.6182 8.5H96.165ZM100.277 11.8447V16H99.374V10.7168H100.229L100.277 11.8447ZM100.062 13.1582L99.6865 13.1436C99.6898 12.7822 99.7435 12.4486 99.8477 12.1426C99.9518 11.8333 100.098 11.5648 100.287 11.3369C100.476 11.109 100.701 10.9333 100.961 10.8096C101.225 10.6826 101.516 10.6191 101.835 10.6191C102.095 10.6191 102.33 10.6549 102.538 10.7266C102.746 10.7949 102.924 10.9056 103.07 11.0586C103.22 11.2116 103.334 11.4102 103.412 11.6543C103.49 11.8952 103.529 12.1898 103.529 12.5381V16H102.621V12.5283C102.621 12.2516 102.58 12.0303 102.499 11.8643C102.418 11.695 102.299 11.5729 102.143 11.498C101.986 11.4199 101.794 11.3809 101.566 11.3809C101.342 11.3809 101.137 11.4281 100.951 11.5225C100.769 11.6169 100.611 11.7471 100.478 11.9131C100.347 12.0791 100.245 12.2695 100.17 12.4844C100.098 12.696 100.062 12.9206 100.062 13.1582Z" fill="white"/>
<path d="M60.8877 29.373L57.9141 38H56.1162L59.8623 28.0469H61.0107L60.8877 29.373ZM63.376 38L60.3955 29.373L60.2656 28.0469H61.4209L65.1807 38H63.376ZM63.2324 34.3086V35.6689H57.8184V34.3086H63.2324ZM70.5752 34.2881H67.9844V32.9277H70.5752C71.0264 32.9277 71.391 32.8548 71.6689 32.709C71.9469 32.5632 72.1497 32.3626 72.2773 32.1074C72.4095 31.8477 72.4756 31.5514 72.4756 31.2188C72.4756 30.9043 72.4095 30.6104 72.2773 30.3369C72.1497 30.0589 71.9469 29.8356 71.6689 29.667C71.391 29.4984 71.0264 29.4141 70.5752 29.4141H68.5107V38H66.7949V28.0469H70.5752C71.3454 28.0469 71.9993 28.1836 72.5371 28.457C73.0794 28.7259 73.4919 29.0996 73.7744 29.5781C74.057 30.0521 74.1982 30.5944 74.1982 31.2051C74.1982 31.8477 74.057 32.3991 73.7744 32.8594C73.4919 33.3197 73.0794 33.6729 72.5371 33.9189C71.9993 34.165 71.3454 34.2881 70.5752 34.2881ZM80.0166 34.2881H77.4258V32.9277H80.0166C80.4678 32.9277 80.8324 32.8548 81.1104 32.709C81.3883 32.5632 81.5911 32.3626 81.7188 32.1074C81.8509 31.8477 81.917 31.5514 81.917 31.2188C81.917 30.9043 81.8509 30.6104 81.7188 30.3369C81.5911 30.0589 81.3883 29.8356 81.1104 29.667C80.8324 29.4984 80.4678 29.4141 80.0166 29.4141H77.9521V38H76.2363V28.0469H80.0166C80.7868 28.0469 81.4408 28.1836 81.9785 28.457C82.5208 28.7259 82.9333 29.0996 83.2158 29.5781C83.4984 30.0521 83.6396 30.5944 83.6396 31.2051C83.6396 31.8477 83.4984 32.3991 83.2158 32.8594C82.9333 33.3197 82.5208 33.6729 81.9785 33.9189C81.4408 34.165 80.7868 34.2881 80.0166 34.2881ZM94.9004 35.4365C94.9004 35.2314 94.8685 35.0492 94.8047 34.8896C94.7454 34.7301 94.6383 34.5843 94.4834 34.4521C94.3285 34.32 94.1097 34.1924 93.8271 34.0693C93.5492 33.9417 93.1937 33.8118 92.7607 33.6797C92.2868 33.5339 91.8493 33.3721 91.4482 33.1943C91.0518 33.012 90.7054 32.8024 90.4092 32.5654C90.113 32.3239 89.8828 32.0482 89.7188 31.7383C89.5547 31.4238 89.4727 31.0615 89.4727 30.6514C89.4727 30.2458 89.557 29.8766 89.7256 29.5439C89.8988 29.2113 90.1426 28.9242 90.457 28.6826C90.776 28.4365 91.152 28.2474 91.585 28.1152C92.0179 27.9785 92.4964 27.9102 93.0205 27.9102C93.7588 27.9102 94.3945 28.0469 94.9277 28.3203C95.4655 28.5938 95.8779 28.9606 96.165 29.4209C96.4567 29.8812 96.6025 30.3893 96.6025 30.9453H94.9004C94.9004 30.6172 94.8298 30.3278 94.6885 30.0771C94.5518 29.8219 94.3421 29.6214 94.0596 29.4756C93.7816 29.3298 93.4284 29.2568 93 29.2568C92.5944 29.2568 92.2572 29.3184 91.9883 29.4414C91.7194 29.5645 91.5189 29.7308 91.3867 29.9404C91.2546 30.1501 91.1885 30.387 91.1885 30.6514C91.1885 30.8382 91.2318 31.0091 91.3184 31.1641C91.4049 31.3145 91.5371 31.4557 91.7148 31.5879C91.8926 31.7155 92.1159 31.8363 92.3848 31.9502C92.6536 32.0641 92.9704 32.1735 93.335 32.2783C93.8864 32.4424 94.3672 32.6247 94.7773 32.8252C95.1875 33.0212 95.5293 33.2445 95.8027 33.4951C96.0762 33.7458 96.2812 34.0306 96.418 34.3496C96.5547 34.6641 96.623 35.0218 96.623 35.4229C96.623 35.8421 96.5387 36.2204 96.3701 36.5576C96.2015 36.8903 95.96 37.1751 95.6455 37.4121C95.3356 37.6445 94.9619 37.8245 94.5244 37.9521C94.0915 38.0752 93.6084 38.1367 93.0752 38.1367C92.5967 38.1367 92.125 38.0729 91.6602 37.9453C91.1999 37.8177 90.7806 37.624 90.4023 37.3643C90.0241 37.0999 89.7233 36.7718 89.5 36.3799C89.2767 35.9834 89.165 35.5208 89.165 34.9922H90.8809C90.8809 35.3158 90.9355 35.5915 91.0449 35.8193C91.1589 36.0472 91.3161 36.234 91.5166 36.3799C91.7171 36.5212 91.9495 36.626 92.2139 36.6943C92.4827 36.7627 92.7699 36.7969 93.0752 36.7969C93.4762 36.7969 93.8112 36.7399 94.0801 36.626C94.3535 36.512 94.5586 36.3525 94.6953 36.1475C94.832 35.9424 94.9004 35.7054 94.9004 35.4365ZM102.735 28.0469V38H101.033V28.0469H102.735ZM105.859 28.0469V29.4141H97.9365V28.0469H105.859ZM115.417 32.75V33.2969C115.417 34.0488 115.319 34.7233 115.123 35.3203C114.927 35.9173 114.647 36.4255 114.282 36.8447C113.922 37.264 113.489 37.5853 112.983 37.8086C112.478 38.0273 111.917 38.1367 111.302 38.1367C110.691 38.1367 110.133 38.0273 109.627 37.8086C109.126 37.5853 108.69 37.264 108.321 36.8447C107.952 36.4255 107.665 35.9173 107.46 35.3203C107.259 34.7233 107.159 34.0488 107.159 33.2969V32.75C107.159 31.998 107.259 31.3258 107.46 30.7334C107.66 30.1364 107.943 29.6283 108.308 29.209C108.677 28.7852 109.112 28.4639 109.613 28.2451C110.119 28.0218 110.677 27.9102 111.288 27.9102C111.903 27.9102 112.464 28.0218 112.97 28.2451C113.476 28.4639 113.911 28.7852 114.275 29.209C114.64 29.6283 114.92 30.1364 115.116 30.7334C115.317 31.3258 115.417 31.998 115.417 32.75ZM113.701 33.2969V32.7363C113.701 32.1803 113.646 31.6904 113.537 31.2666C113.432 30.8382 113.275 30.4805 113.065 30.1934C112.86 29.9017 112.607 29.6829 112.307 29.5371C112.006 29.3867 111.666 29.3115 111.288 29.3115C110.91 29.3115 110.573 29.3867 110.276 29.5371C109.98 29.6829 109.727 29.9017 109.518 30.1934C109.312 30.4805 109.155 30.8382 109.046 31.2666C108.937 31.6904 108.882 32.1803 108.882 32.7363V33.2969C108.882 33.8529 108.937 34.3451 109.046 34.7734C109.155 35.2018 109.315 35.5641 109.524 35.8604C109.739 36.152 109.994 36.373 110.29 36.5234C110.586 36.6693 110.924 36.7422 111.302 36.7422C111.685 36.7422 112.024 36.6693 112.32 36.5234C112.617 36.373 112.867 36.152 113.072 35.8604C113.277 35.5641 113.432 35.2018 113.537 34.7734C113.646 34.3451 113.701 33.8529 113.701 33.2969ZM117.633 28.0469H121.153C121.91 28.0469 122.555 28.1608 123.088 28.3887C123.621 28.6165 124.029 28.9538 124.312 29.4004C124.599 29.8424 124.742 30.3893 124.742 31.041C124.742 31.5378 124.651 31.9753 124.469 32.3535C124.286 32.7318 124.029 33.0508 123.696 33.3105C123.364 33.5658 122.967 33.764 122.507 33.9053L121.987 34.1582H118.822L118.809 32.7979H121.181C121.591 32.7979 121.933 32.7249 122.206 32.5791C122.479 32.4333 122.685 32.235 122.821 31.9844C122.963 31.7292 123.033 31.4421 123.033 31.123C123.033 30.7767 122.965 30.4759 122.828 30.2207C122.696 29.9609 122.491 29.7627 122.213 29.626C121.935 29.4847 121.582 29.4141 121.153 29.4141H119.349V38H117.633V28.0469ZM123.313 38L120.976 33.5293L122.773 33.5225L125.146 37.9111V38H123.313ZM133.466 36.6396V38H128.182V36.6396H133.466ZM128.667 28.0469V38H126.951V28.0469H128.667ZM132.775 32.2031V33.543H128.182V32.2031H132.775ZM133.432 28.0469V29.4141H128.182V28.0469H133.432Z" fill="white"/>
<defs>
<clipPath id="clip0_932_4010">
<rect width="32" height="32" fill="white" transform="translate(16 8)"/>
</clipPath>
</defs>
</svg>
