<svg width="20" height="20" viewBox="0 0 20 20" fill="none" xmlns="http://www.w3.org/2000/svg">
<path d="M5.47315 3.0506C5.41166 2.9715 5.33404 2.90639 5.24545 2.85959C5.15686 2.81279 5.05933 2.78538 4.95933 2.77917C4.85933 2.77296 4.75916 2.7881 4.66546 2.82359C4.57176 2.85907 4.48669 2.91409 4.41589 2.98498L3.33883 4.06307C2.83572 4.56723 2.6503 5.28075 2.87009 5.90678C3.7823 8.49795 5.26617 10.8505 7.21165 12.7899C9.15111 14.7354 11.5037 16.2193 14.0948 17.1315C14.7208 17.3513 15.4344 17.1659 15.9385 16.6628L17.0156 15.5857C17.0865 15.5149 17.1415 15.4298 17.177 15.3361C17.2124 15.2424 17.2276 15.1423 17.2214 15.0423C17.2152 14.9423 17.1878 14.8447 17.141 14.7561C17.0942 14.6676 17.0291 14.5899 16.95 14.5284L14.5469 12.6597C14.4624 12.5942 14.3641 12.5487 14.2594 12.5267C14.1548 12.5047 14.0465 12.5067 13.9427 12.5327L11.6615 13.1024C11.357 13.1785 11.038 13.1745 10.7356 13.0907C10.4331 13.0069 10.1575 12.8463 9.93554 12.6243L7.37727 10.065C7.15516 9.84318 6.99429 9.56761 6.91032 9.26513C6.82635 8.96266 6.82214 8.64359 6.89812 8.33901L7.46894 6.05782C7.49488 5.95407 7.49692 5.84578 7.47491 5.74112C7.45289 5.63646 7.4074 5.53817 7.34186 5.45366L5.47315 3.0506ZM3.62945 2.19958C3.81173 2.01724 4.03072 1.87576 4.27187 1.78455C4.51302 1.69333 4.77082 1.65446 5.02814 1.67052C5.28547 1.68658 5.53643 1.7572 5.76437 1.87769C5.99231 1.99818 6.19201 2.16578 6.35021 2.36937L8.21892 4.77139C8.56162 5.212 8.68245 5.78595 8.54703 6.3276L7.97726 8.6088C7.9478 8.72695 7.94939 8.85071 7.98188 8.96807C8.01436 9.08542 8.07664 9.19239 8.16267 9.27857L10.722 11.8379C10.8083 11.9241 10.9154 11.9865 11.033 12.019C11.1505 12.0515 11.2745 12.0529 11.3928 12.0233L13.6729 11.4535C13.9403 11.3867 14.2192 11.3815 14.4888 11.4383C14.7584 11.4952 15.0116 11.6126 15.2292 11.7816L17.6312 13.6503C18.4947 14.3222 18.5739 15.5982 17.801 16.3701L16.7239 17.4471C15.9531 18.2179 14.801 18.5565 13.7271 18.1784C10.9784 17.2112 8.48274 15.6376 6.42521 13.5743C4.36202 11.5171 2.78843 9.02176 1.82116 6.27344C1.44408 5.20055 1.78262 4.04745 2.55343 3.27663L3.63049 2.19958H3.62945Z" fill="black"/>
</svg>
