<svg width="25" height="20" viewBox="0 0 25 20" fill="none" xmlns="http://www.w3.org/2000/svg">
<path d="M8.33585 19.7508C17.3925 19.7508 22.3461 12.2474 22.3461 5.74052C22.3461 5.5274 22.3461 5.31524 22.3317 5.10404C23.2954 4.407 24.1272 3.54392 24.7883 2.55524C23.8897 2.95364 22.9364 3.2148 21.9602 3.32996C22.9881 2.71465 23.7575 1.74674 24.125 0.60644C23.1584 1.18005 22.101 1.58427 20.9982 1.80164C20.2558 1.01222 19.274 0.489481 18.2045 0.314324C17.1351 0.139168 16.0378 0.321355 15.0823 0.832693C14.1268 1.34403 13.3666 2.15601 12.9191 3.14299C12.4716 4.12996 12.3619 5.23691 12.6069 6.29252C10.6492 6.19432 8.73409 5.68555 6.98579 4.79924C5.23748 3.91294 3.69509 2.6689 2.45873 1.14788C1.82906 2.23188 1.6362 3.51511 1.91943 4.7363C2.20266 5.9575 2.94067 7.02483 3.98321 7.721C3.19956 7.69804 2.43298 7.48663 1.74833 7.10468V7.16708C1.74864 8.30393 2.14218 9.40568 2.8622 10.2854C3.58222 11.1652 4.58439 11.7689 5.69873 11.994C4.97381 12.1917 4.2132 12.2206 3.47537 12.0784C3.79014 13.0568 4.40276 13.9123 5.22757 14.5254C6.05238 15.1385 7.04816 15.4785 8.07569 15.498C7.05477 16.3004 5.88564 16.8938 4.6352 17.244C3.38476 17.5942 2.07754 17.6944 0.78833 17.5389C3.04016 18.9839 5.66025 19.7504 8.33585 19.7469" fill="#1DA1F2"/>
</svg>
