<svg width="20" height="20" viewBox="0 0 20 20" fill="none" xmlns="http://www.w3.org/2000/svg">
<path d="M10.0002 10.625C7.3585 10.625 5.2085 8.47496 5.2085 5.83329C5.2085 3.19163 7.3585 1.04163 10.0002 1.04163C12.6418 1.04163 14.7918 3.19163 14.7918 5.83329C14.7918 8.47496 12.6418 10.625 10.0002 10.625ZM10.0002 2.29163C8.05016 2.29163 6.4585 3.88329 6.4585 5.83329C6.4585 7.78329 8.05016 9.37496 10.0002 9.37496C11.9502 9.37496 13.5418 7.78329 13.5418 5.83329C13.5418 3.88329 11.9502 2.29163 10.0002 2.29163Z" fill="#777E90"/>
<path d="M13.1828 18.9595C12.8661 18.9595 12.5661 18.8428 12.3495 18.6261C12.0911 18.3678 11.9745 17.9928 12.0328 17.6011L12.1911 16.4762C12.2328 16.1846 12.4078 15.8428 12.6161 15.6261L15.5661 12.6762C16.7495 11.4929 17.7911 12.1679 18.2995 12.6762C18.7328 13.1096 18.9578 13.5761 18.9578 14.0428C18.9578 14.5178 18.7411 14.9595 18.2995 15.4011L15.3494 18.3512C15.1411 18.5596 14.7911 18.7346 14.4995 18.7762L13.3744 18.9345C13.3077 18.9511 13.2495 18.9595 13.1828 18.9595ZM16.9245 13.2678C16.7745 13.2678 16.6411 13.3679 16.4495 13.5596L13.4995 16.5095C13.4745 16.5345 13.4328 16.6178 13.4328 16.6511L13.2828 17.6928L14.3245 17.5428C14.3578 17.5345 14.4411 17.4929 14.4661 17.4679L17.4161 14.5178C17.5495 14.3845 17.7078 14.1928 17.7078 14.0428C17.7078 13.9178 17.6078 13.7429 17.4161 13.5596C17.2161 13.3596 17.0661 13.2678 16.9245 13.2678Z" fill="#777E90"/>
<path d="M17.4338 16.0177C17.3755 16.0177 17.3172 16.0094 17.2672 15.9927C16.1672 15.6844 15.2922 14.8095 14.9838 13.7095C14.8922 13.3761 15.0838 13.0345 15.4172 12.9428C15.7505 12.8511 16.0922 13.0427 16.1838 13.3761C16.3755 14.0594 16.9172 14.6011 17.6005 14.7927C17.9338 14.8844 18.1255 15.2344 18.0338 15.5594C17.9588 15.8344 17.7088 16.0177 17.4338 16.0177Z" fill="#777E90"/>
<path d="M2.8418 18.9583C2.50013 18.9583 2.2168 18.675 2.2168 18.3333C2.2168 14.775 5.70848 11.875 10.0002 11.875C10.9085 11.875 11.8085 12.0083 12.6502 12.2583C12.9835 12.3583 13.1668 12.7083 13.0668 13.0333C12.9668 13.3667 12.6168 13.55 12.2918 13.45C11.5585 13.2333 10.7918 13.1167 10.0002 13.1167C6.40015 13.1167 3.4668 15.45 3.4668 18.325C3.4668 18.675 3.18346 18.9583 2.8418 18.9583Z" fill="#777E90"/>
</svg>
