<svg width="20" height="21" viewBox="0 0 20 21" fill="none" xmlns="http://www.w3.org/2000/svg">
<mask id="path-1-inside-1_915_4707" fill="white">
<path d="M14.36 12.8364C14.44 12.1764 14.5 11.5164 14.5 10.8364C14.5 10.1564 14.44 9.49643 14.36 8.83643H17.74C17.9 9.47643 18 10.1464 18 10.8364C18 11.5264 17.9 12.1964 17.74 12.8364M12.59 18.3964C13.19 17.2864 13.65 16.0864 13.97 14.8364H16.92C15.9512 16.5047 14.4141 17.7684 12.59 18.3964ZM12.34 12.8364H7.66C7.56 12.1764 7.5 11.5164 7.5 10.8364C7.5 10.1564 7.56 9.48643 7.66 8.83643H12.34C12.43 9.48643 12.5 10.1564 12.5 10.8364C12.5 11.5164 12.43 12.1764 12.34 12.8364ZM10 18.7964C9.17 17.5964 8.5 16.2664 8.09 14.8364H11.91C11.5 16.2664 10.83 17.5964 10 18.7964ZM6 6.83643H3.08C4.03886 5.16364 5.5748 3.89791 7.4 3.27643C6.8 4.38643 6.35 5.58643 6 6.83643ZM3.08 14.8364H6C6.35 16.0864 6.8 17.2864 7.4 18.3964C5.57862 17.7681 4.04485 16.5041 3.08 14.8364ZM2.26 12.8364C2.1 12.1964 2 11.5264 2 10.8364C2 10.1464 2.1 9.47643 2.26 8.83643H5.64C5.56 9.49643 5.5 10.1564 5.5 10.8364C5.5 11.5164 5.56 12.1764 5.64 12.8364M10 2.86643C10.83 4.06643 11.5 5.40643 11.91 6.83643H8.09C8.5 5.40643 9.17 4.06643 10 2.86643ZM16.92 6.83643H13.97C13.657 5.59788 13.1936 4.40232 12.59 3.27643C14.43 3.90643 15.96 5.17643 16.92 6.83643ZM10 0.836426C4.47 0.836426 0 5.33643 0 10.8364C0 13.4886 1.05357 16.0321 2.92893 17.9075C3.85752 18.8361 4.95991 19.5727 6.17317 20.0752C7.38642 20.5778 8.68678 20.8364 10 20.8364C12.6522 20.8364 15.1957 19.7829 17.0711 17.9075C18.9464 16.0321 20 13.4886 20 10.8364C20 9.52321 19.7413 8.22285 19.2388 7.00959C18.7362 5.79634 17.9997 4.69394 17.0711 3.76536C16.1425 2.83677 15.0401 2.10018 13.8268 1.59763C12.6136 1.09508 11.3132 0.836426 10 0.836426Z"/>
</mask>
<path d="M14.36 12.8364C14.44 12.1764 14.5 11.5164 14.5 10.8364C14.5 10.1564 14.44 9.49643 14.36 8.83643H17.74C17.9 9.47643 18 10.1464 18 10.8364C18 11.5264 17.9 12.1964 17.74 12.8364M12.59 18.3964C13.19 17.2864 13.65 16.0864 13.97 14.8364H16.92C15.9512 16.5047 14.4141 17.7684 12.59 18.3964ZM12.34 12.8364H7.66C7.56 12.1764 7.5 11.5164 7.5 10.8364C7.5 10.1564 7.56 9.48643 7.66 8.83643H12.34C12.43 9.48643 12.5 10.1564 12.5 10.8364C12.5 11.5164 12.43 12.1764 12.34 12.8364ZM10 18.7964C9.17 17.5964 8.5 16.2664 8.09 14.8364H11.91C11.5 16.2664 10.83 17.5964 10 18.7964ZM6 6.83643H3.08C4.03886 5.16364 5.5748 3.89791 7.4 3.27643C6.8 4.38643 6.35 5.58643 6 6.83643ZM3.08 14.8364H6C6.35 16.0864 6.8 17.2864 7.4 18.3964C5.57862 17.7681 4.04485 16.5041 3.08 14.8364ZM2.26 12.8364C2.1 12.1964 2 11.5264 2 10.8364C2 10.1464 2.1 9.47643 2.26 8.83643H5.64C5.56 9.49643 5.5 10.1564 5.5 10.8364C5.5 11.5164 5.56 12.1764 5.64 12.8364M10 2.86643C10.83 4.06643 11.5 5.40643 11.91 6.83643H8.09C8.5 5.40643 9.17 4.06643 10 2.86643ZM16.92 6.83643H13.97C13.657 5.59788 13.1936 4.40232 12.59 3.27643C14.43 3.90643 15.96 5.17643 16.92 6.83643ZM10 0.836426C4.47 0.836426 0 5.33643 0 10.8364C0 13.4886 1.05357 16.0321 2.92893 17.9075C3.85752 18.8361 4.95991 19.5727 6.17317 20.0752C7.38642 20.5778 8.68678 20.8364 10 20.8364C12.6522 20.8364 15.1957 19.7829 17.0711 17.9075C18.9464 16.0321 20 13.4886 20 10.8364C20 9.52321 19.7413 8.22285 19.2388 7.00959C18.7362 5.79634 17.9997 4.69394 17.0711 3.76536C16.1425 2.83677 15.0401 2.10018 13.8268 1.59763C12.6136 1.09508 11.3132 0.836426 10 0.836426Z" fill="#0D54BE"/>
<path d="M14.36 8.83643V8.63643H14.1343L14.1615 8.86049L14.36 8.83643ZM17.74 8.83643L17.934 8.78792L17.8962 8.63643H17.74V8.83643ZM13.97 14.8364V14.6364H13.8148L13.7762 14.7868L13.97 14.8364ZM16.92 14.8364L17.093 14.9369L17.2674 14.6364H16.92V14.8364ZM12.34 12.8364V13.0364H12.5146L12.5382 12.8634L12.34 12.8364ZM7.66 12.8364L7.46226 12.8664L7.48802 13.0364H7.66V12.8364ZM7.66 8.83643V8.63643H7.48842L7.46233 8.80601L7.66 8.83643ZM12.34 8.83643L12.5381 8.809L12.5142 8.63643H12.34V8.83643ZM10 18.7964L9.83551 18.9102L10 19.148L10.1645 18.9102L10 18.7964ZM8.09 14.8364V14.6364H7.8246L7.89775 14.8915L8.09 14.8364ZM11.91 14.8364L12.1023 14.8915L12.1754 14.6364H11.91V14.8364ZM6 6.83643V7.03643H6.15169L6.19259 6.89035L6 6.83643ZM3.08 6.83643L2.90648 6.73697L2.73483 7.03643H3.08V6.83643ZM7.4 3.27643L7.57594 3.37153L7.8186 2.92262L7.33553 3.0871L7.4 3.27643ZM6 14.8364L6.19259 14.7825L6.15169 14.6364H6V14.8364ZM7.4 18.3964L7.33478 18.5855L7.82003 18.7529L7.57594 18.3013L7.4 18.3964ZM2.26 8.83643V8.63643H2.10384L2.06597 8.78792L2.26 8.83643ZM5.64 8.83643L5.83855 8.86049L5.86571 8.63643H5.64V8.83643ZM11.91 6.83643V7.03643H12.1754L12.1023 6.7813L11.91 6.83643ZM8.09 6.83643L7.89775 6.7813L7.8246 7.03643H8.09V6.83643ZM16.92 6.83643V7.03643H17.2667L17.0931 6.7363L16.92 6.83643ZM13.97 6.83643L13.7761 6.88543L13.8143 7.03643H13.97V6.83643ZM12.59 3.27643L12.6548 3.08721L12.1733 2.92234L12.4137 3.37092L12.59 3.27643ZM10 20.8364V21.0364V20.8364ZM14.5585 12.8605C14.639 12.1969 14.7 11.5279 14.7 10.8364H14.3C14.3 11.5049 14.241 12.156 14.1615 12.8124L14.5585 12.8605ZM14.7 10.8364C14.7 10.1449 14.639 9.47596 14.5585 8.81236L14.1615 8.86049C14.241 9.51689 14.3 10.1679 14.3 10.8364H14.7ZM14.36 9.03643H17.74V8.63643H14.36V9.03643ZM17.546 8.88493C17.7028 9.51222 17.8 10.1657 17.8 10.8364H18.2C18.2 10.1271 18.0972 9.44064 17.934 8.78792L17.546 8.88493ZM17.8 10.8364C17.8 11.5071 17.7028 12.1606 17.546 12.7879L17.934 12.8849C18.0972 12.2322 18.2 11.5457 18.2 10.8364H17.8ZM12.7659 18.4915C13.3742 17.3662 13.84 16.1507 14.1638 14.886L13.7762 14.7868C13.46 16.0221 13.0058 17.2067 12.4141 18.3013L12.7659 18.4915ZM13.97 15.0364H16.92V14.6364H13.97V15.0364ZM16.747 14.736C15.8023 16.3627 14.3036 17.595 12.5249 18.2073L12.6551 18.5855C14.5247 17.9419 16.1 16.6467 17.093 14.9369L16.747 14.736ZM12.34 12.6364H7.66V13.0364H12.34V12.6364ZM7.85774 12.8065C7.75894 12.1543 7.7 11.5045 7.7 10.8364H7.3C7.3 11.5283 7.36106 12.1985 7.46226 12.8664L7.85774 12.8065ZM7.7 10.8364C7.7 10.1681 7.75897 9.50839 7.85767 8.86684L7.46233 8.80601C7.36103 9.46446 7.3 10.1447 7.3 10.8364H7.7ZM7.66 9.03643H12.34V8.63643H7.66V9.03643ZM12.1419 8.86386C12.2313 9.50987 12.3 10.1696 12.3 10.8364H12.7C12.7 10.1432 12.6287 9.46298 12.5381 8.809L12.1419 8.86386ZM12.3 10.8364C12.3 11.5031 12.2314 12.1528 12.1418 12.8094L12.5382 12.8634C12.6286 12.2001 12.7 11.5297 12.7 10.8364H12.3ZM10.1645 18.6827C9.34503 17.4979 8.68542 16.1875 8.28225 14.7813L7.89775 14.8915C8.31458 16.3454 8.99497 17.695 9.83551 18.9102L10.1645 18.6827ZM8.09 15.0364H11.91V14.6364H8.09V15.0364ZM11.7177 14.7813C11.3146 16.1875 10.655 17.4979 9.83551 18.6827L10.1645 18.9102C11.005 17.695 11.6854 16.3454 12.1023 14.8915L11.7177 14.7813ZM6 6.63643H3.08V7.03643H6V6.63643ZM3.25352 6.93589C4.18817 5.30533 5.68533 4.07155 7.46447 3.46575L7.33553 3.0871C5.46426 3.72427 3.88954 5.02195 2.90648 6.73697L3.25352 6.93589ZM7.22406 3.18132C6.61537 4.3074 6.16037 5.52192 5.80741 6.7825L6.19259 6.89035C6.53963 5.65093 6.98463 4.46545 7.57594 3.37153L7.22406 3.18132ZM3.08 15.0364H6V14.6364H3.08V15.0364ZM5.80741 14.8904C6.16037 16.1509 6.61537 17.3654 7.22406 18.4915L7.57594 18.3013C6.98463 17.2074 6.53963 16.0219 6.19259 14.7825L5.80741 14.8904ZM7.46522 18.2074C5.68934 17.5947 4.19386 16.3623 3.25312 14.7363L2.90688 14.9366C3.89583 16.646 5.46791 17.9415 7.33478 18.5855L7.46522 18.2074ZM2.45403 12.7879C2.29721 12.1606 2.2 11.5071 2.2 10.8364H1.8C1.8 11.5457 1.90279 12.2322 2.06597 12.8849L2.45403 12.7879ZM2.2 10.8364C2.2 10.1657 2.29721 9.51222 2.45403 8.88493L2.06597 8.78792C1.90279 9.44064 1.8 10.1271 1.8 10.8364H2.2ZM2.26 9.03643H5.64V8.63643H2.26V9.03643ZM5.44145 8.81236C5.36102 9.47596 5.3 10.1449 5.3 10.8364H5.7C5.7 10.1679 5.75898 9.51689 5.83855 8.86049L5.44145 8.81236ZM5.3 10.8364C5.3 11.5279 5.36102 12.1969 5.44145 12.8605L5.83855 12.8124C5.75898 12.156 5.7 11.5049 5.7 10.8364H5.3ZM9.83551 2.9802C10.6547 4.16461 11.3145 5.48503 11.7177 6.89155L12.1023 6.7813C11.6855 5.32783 11.0053 3.96825 10.1645 2.75266L9.83551 2.9802ZM11.91 6.63643H8.09V7.03643H11.91V6.63643ZM8.28225 6.89155C8.68552 5.48503 9.34527 4.16461 10.1645 2.9802L9.83551 2.75266C8.99473 3.96825 8.31448 5.32783 7.89775 6.7813L8.28225 6.89155ZM16.92 6.63643H13.97V7.03643H16.92V6.63643ZM14.1639 6.78743C13.8469 5.53306 13.3776 4.32222 12.7663 3.18193L12.4137 3.37092C13.0096 4.48243 13.4671 5.66271 13.7761 6.88543L14.1639 6.78743ZM12.5252 3.46564C14.3192 4.07989 15.8109 5.31807 16.7469 6.93655L17.0931 6.7363C16.1091 5.03478 14.5408 3.73296 12.6548 3.08721L12.5252 3.46564ZM10 0.636426C4.35915 0.636426 -0.2 5.22636 -0.2 10.8364H0.2C0.2 5.44649 4.58085 1.03643 10 1.03643V0.636426ZM-0.2 10.8364C-0.2 13.5416 0.87464 16.136 2.78751 18.0489L3.07035 17.7661C1.2325 15.9282 0.2 13.4355 0.2 10.8364H-0.2ZM2.78751 18.0489C3.73467 18.9961 4.85911 19.7474 6.09663 20.26L6.2497 19.8904C5.06071 19.3979 3.98037 18.6761 3.07035 17.7661L2.78751 18.0489ZM6.09663 20.26C7.33415 20.7726 8.66052 21.0364 10 21.0364V20.6364C8.71305 20.6364 7.43869 20.3829 6.2497 19.8904L6.09663 20.26ZM10 21.0364C12.7052 21.0364 15.2996 19.9618 17.2125 18.0489L16.9296 17.7661C15.0918 19.6039 12.5991 20.6364 10 20.6364V21.0364ZM17.2125 18.0489C19.1254 16.136 20.2 13.5416 20.2 10.8364H19.8C19.8 13.4355 18.7675 15.9282 16.9296 17.7661L17.2125 18.0489ZM20.2 10.8364C20.2 9.49694 19.9362 8.17058 19.4236 6.93305L19.054 7.08613C19.5465 8.27512 19.8 9.54947 19.8 10.8364H20.2ZM19.4236 6.93305C18.911 5.69553 18.1596 4.57109 17.2125 3.62394L16.9296 3.90678C17.8397 4.81679 18.5615 5.89714 19.054 7.08613L19.4236 6.93305ZM17.2125 3.62394C16.2653 2.67678 15.1409 1.92545 13.9034 1.41285L13.7503 1.78241C14.9393 2.2749 16.0196 2.99677 16.9296 3.90678L17.2125 3.62394ZM13.9034 1.41285C12.6659 0.900257 11.3395 0.636426 10 0.636426V1.03643C11.287 1.03643 12.5613 1.28991 13.7503 1.78241L13.9034 1.41285Z" fill="#F4F5F6" mask="url(#path-1-inside-1_915_4707)"/>
</svg>
