<svg xmlns="http://www.w3.org/2000/svg" width="27" height="24">
    <path fill="#E22026" fill-rule="evenodd" d="M27 22.829c-.692 1.416-3.424 1.134-3.424 1.134H3.035S.52 23.655 1.1 21.155l4.692-5.809a.913.913 0 0 0-.146-1.296l-.24-.188c-.009-.008-.018-.017-.028-.024L1.2 10.572a1.273 1.273 0 0 1-.381-1.373c.169-.509.546-1.119 1.075-1.119h7.988c1.704-.063 2.283-1.135 2.283-1.135l5.6-6.348a1.229 1.229 0 0 1 1.371-.384c.493.18 1.277 1.101 2.158 2.195 0 0 3.265 3.432 5.716 6.903 0 6.276-.01 13.518-.01 13.518zm-1.205-12.504c-.11-.481-.515-.821-.982-.821h-4.029c-.416 0-.752-.357-.752-.797V3.59a1.07 1.07 0 0 0-.67-1.007.963.963 0 0 0-1.121.327l-4.654 5.979c-.263.339-.815.615-1.23.615H5.35c-.432 0-.818.292-.956.725a1.11 1.11 0 0 0 .311 1.167l3.414 2.779.023.022.196.159a.8.8 0 0 1 .12 1.103l-3.835 4.943a1.12 1.12 0 0 0-.005 1.352.986.986 0 0 0 .787.398.993.993 0 0 0 .46-.118l6.452-3.506c.15-.082.334-.122.52-.122.273 0 .552.085.747.243l4.821 3.921a.981.981 0 0 0 .616.222.966.966 0 0 0 .447-.111c.345-.179.564-.552.564-.959v-6.558c0-.44.3-.96.67-1.161l4.571-2.476c.416-.225.631-.724.522-1.202z"/>
</svg>
