<svg xmlns="http://www.w3.org/2000/svg" width="212" height="57">
    <defs>
        <linearGradient id="a" x1="93.969%" x2="0%" y1="34.202%" y2="0%">
            <stop offset="0%" stop-color="#E2131A"/>
            <stop offset="100%" stop-color="#FFF"/>
        </linearGradient>
        <linearGradient id="b" x1="17.365%" x2="0%" y1="98.481%" y2="0%">
            <stop offset="0%" stop-color="#E2131A"/>
            <stop offset="100%" stop-color="#FFF"/>
        </linearGradient>
    </defs>
    <path fill="#E2131A" fill-rule="evenodd" d="M167.446 31.038v-5.305c0-.744-.147-1.273-.441-1.586-.294-.312-.744-.468-1.348-.468-.443 0-.835.106-1.176.32a2.34 2.34 0 0 0-.816.875v6.164h-1.539v-8.453h1.375l.109 1.258a3.068 3.068 0 0 1 1.059-1.043 2.825 2.825 0 0 1 1.449-.371c.911 0 1.617.267 2.117.8.5.534.75 1.359.75 2.473v5.336h-1.539zm-10.976 0l-3.149-8.453h1.578l2 5.961.133.594h.047l.148-.594 1.946-5.961h1.57l-3.109 8.453h-1.164zm-6.532-1.594h1.539v1.594h-1.539v-1.594zm-3.914-3.711c0-.744-.147-1.273-.441-1.586-.294-.312-.744-.468-1.348-.468-.443 0-.834.106-1.175.32a2.335 2.335 0 0 0-.817.875v6.164h-1.539v-8.453h1.375l.109 1.258a3.077 3.077 0 0 1 1.059-1.043 2.825 2.825 0 0 1 1.449-.371c.912 0 1.617.267 2.117.8.5.534.75 1.359.75 2.473v5.336h-1.539v-5.305zm-9.043 4.629a5.031 5.031 0 0 1-.05-.589 3.6 3.6 0 0 1-1.121 1.019c-.461.273-.958.41-1.489.41-.88 0-1.551-.225-2.011-.676-.461-.45-.692-1.071-.692-1.863 0-.807.327-1.439.981-1.894.653-.456 1.54-.684 2.66-.684h1.672v-.836c0-.495-.151-.887-.453-1.176-.303-.289-.73-.433-1.282-.433-.495 0-.897.126-1.207.379-.31.252-.465.556-.465.91h-1.468l-.016-.047c-.031-.615.259-1.177.871-1.688.612-.51 1.402-.765 2.371-.765.958 0 1.729.243 2.313.73.583.487.875 1.189.875 2.106v4.07c0 .302.015.594.046.875.032.281.089.557.172.828h-1.585a12.079 12.079 0 0 1-.122-.676zm-.05-3.238h-1.727c-.62 0-1.116.156-1.488.467-.373.312-.559.678-.559 1.099 0 .374.117.67.352.888.234.218.58.327 1.039.327.557 0 1.06-.143 1.508-.428.448-.286.739-.613.875-.982v-1.371zM126.2 33.819c-.398.422-.936.633-1.613.633a3.32 3.32 0 0 1-.477-.043 5.144 5.144 0 0 1-.445-.082l.156-1.211c-.031-.005.061 0 .278.016.216.016.352.023.41.023.328 0 .596-.146.804-.437.209-.292.383-.615.524-.969l.367-.883-3.141-8.281h1.719l1.781 5.32.274 1.063h.047l2.078-6.383h1.711l-3.555 9.75a4.378 4.378 0 0 1-.918 1.484zm-6.363-4.375h1.539v1.594h-1.539v-1.594zm-4.375 1.594l-1.633-5.148-.352-1.438-.046.008-.336 1.43-1.61 5.148h-1.242l-2.453-8.453h1.531l1.399 5.375.179 1.023h.047l.219-1.023 1.688-5.375h1.234l1.695 5.375.242 1.141h.047l.227-1.141 1.328-5.375h1.531l-2.453 8.453h-1.242zm-12.11 0l-1.632-5.148-.352-1.438-.047.008-.336 1.43-1.609 5.148h-1.242l-2.453-8.453h1.531l1.398 5.375.18 1.023h.047l.219-1.023 1.687-5.375h1.235l1.695 5.375.242 1.141h.047l.226-1.141 1.329-5.375h1.531l-2.453 8.453h-1.243zm-12.109 0L89.61 25.89l-.351-1.438-.047.008-.336 1.43-1.609 5.148h-1.243l-2.453-8.453h1.531l1.399 5.375.18 1.023h.047l.218-1.023 1.688-5.375h1.234l1.695 5.375.243 1.141h.047l.226-1.141 1.328-5.375h1.531l-2.453 8.453h-1.242z"/>
    <path fill-rule="evenodd" d="M209.484 47.61h-1.863l-1.436-5.262h-.035l-1.424 5.262h-1.863l-1.963-8.531h1.922l1.119 5.596h.035l1.506-5.596h1.377l1.512 5.596h.035l1.119-5.596h1.916l-1.957 8.531zm-12.432.123c-1.082 0-1.959-.34-2.631-1.022-.672-.682-1.008-1.548-1.008-2.599v-1.535c0-1.047.335-1.912 1.005-2.596.67-.683 1.544-1.025 2.622-1.025 1.07 0 1.941.342 2.613 1.025.672.684 1.008 1.549 1.008 2.596v1.535c0 1.051-.333 1.917-.999 2.599-.666.682-1.536 1.022-2.61 1.022zm1.634-5.168c0-.609-.143-1.109-.43-1.5-.287-.39-.693-.586-1.216-.586-.535 0-.944.195-1.228.583-.283.389-.424.89-.424 1.503v1.547c0 .617.143 1.121.43 1.512.287.391.698.586 1.234.586.519 0 .921-.195 1.207-.586.285-.391.427-.895.427-1.512v-1.547zm-11.219-.392l-.035.011v5.426h-1.987v-8.531h1.987l3.123 5.437.035-.011v-5.426h1.975v8.531h-1.975l-3.123-5.437zm-9.25.263h3.346v1.524h-3.346v2.127h3.944v1.523h-5.93v-8.531h5.941v1.523h-3.955v1.834zm-4.917 4.53a5.494 5.494 0 0 1-.074-.856v-.515c0-.407-.107-.717-.322-.932-.215-.215-.529-.322-.943-.322h-1.366v3.269h-1.986v-8.531h3.281c.989 0 1.772.228 2.35.686.578.457.867 1.082.867 1.875 0 .441-.116.82-.348 1.136-.233.317-.576.574-1.029.774.524.148.9.395 1.128.741.229.346.343.776.343 1.292v.539c0 .223.033.477.1.762.066.285.181.488.345.609v.117h-2.039c-.156-.121-.259-.336-.307-.644zm-.493-6.044c-.216-.213-.522-.32-.917-.32h-1.295v2.215h1.307c.399 0 .703-.091.914-.272.211-.182.317-.443.317-.782 0-.348-.109-.628-.326-.841zm-8.708 6.811c-1.059 0-1.913-.267-2.561-.802-.648-.536-.973-1.29-.973-2.262v-5.59h1.987v5.59c0 .523.135.911.404 1.163.27.252.65.378 1.143.378.488 0 .864-.125 1.128-.375.263-.25.395-.639.395-1.166v-5.59h1.986v5.59c0 .972-.323 1.726-.969 2.262-.647.535-1.494.802-2.54.802zm-6.245-.123h-1.987v-7.008h-2.232v-1.523h6.469v1.523h-2.25v7.008zm-9.673-5.437l-.035.011v5.426h-1.986v-8.531h1.986l3.123 5.437.035-.011v-5.426h1.975v8.531h-1.975l-3.123-5.437zm-6.561.263h3.345v1.524h-3.345v2.127h3.943v1.523h-5.93v-8.531h5.942v1.523h-3.955v1.834zm-7.253 5.174l-2.754-8.531h2.069l1.669 6.217.059.31h.035l.059-.287 1.693-6.24h2.074l-2.765 8.531h-2.139zm-6.409 0h-3.082v-8.531h3.082c1.004 0 1.844.327 2.52.981.675.655 1.013 1.494 1.013 2.517v1.535c0 1.028-.338 1.867-1.013 2.52-.676.652-1.516.978-2.52.978zm1.547-5.045c0-.589-.148-1.064-.445-1.424-.297-.359-.709-.539-1.237-.539h-.961v5.485h.961c.528 0 .94-.181 1.237-.542.297-.361.445-.839.445-1.433v-1.547zm-7.411 3.387h-2.689l-.481 1.658h-1.992l2.754-8.531h2.127l2.76 8.531h-1.993l-.486-1.658zm-1.33-4.576h-.035l-.885 3.053h1.811l-.891-3.053zm-8.825 5.59a5.486 5.486 0 0 1-.073-.856v-.515c0-.407-.107-.717-.322-.932-.215-.215-.53-.322-.944-.322h-1.365v3.269h-1.986v-8.531h3.281c.988 0 1.772.228 2.35.686.578.457.867 1.082.867 1.875 0 .441-.116.82-.349 1.136-.232.317-.575.574-1.028.774.523.148.899.395 1.128.741.228.346.343.776.343 1.292v.539c0 .223.033.477.099.762.067.285.182.488.346.609v.117h-2.039c-.156-.121-.259-.336-.308-.644zm-.492-6.044c-.217-.213-.522-.32-.917-.32h-1.295v2.215h1.307c.398 0 .703-.091.914-.272.211-.182.316-.443.316-.782 0-.348-.108-.628-.325-.841zm-8.709 6.811c-1.058 0-1.912-.267-2.56-.802-.649-.536-.973-1.29-.973-2.262v-5.59h1.986v5.59c0 .523.135.911.405 1.163.269.252.65.378 1.142.378.489 0 .865-.125 1.128-.375.264-.25.396-.639.396-1.166v-5.59h1.986v5.59c0 .972-.323 1.726-.97 2.262-.646.535-1.493.802-2.54.802zm-7.95 0c-1.082 0-1.959-.34-2.63-1.022-.672-.682-1.008-1.548-1.008-2.599v-1.535c0-1.047.335-1.912 1.005-2.596.669-.683 1.544-1.025 2.622-1.025 1.07 0 1.941.342 2.613 1.025.672.684 1.008 1.549 1.008 2.596v1.535c0 1.051-.333 1.917-.999 2.599-.666.682-1.536 1.022-2.611 1.022zm1.635-5.168c0-.609-.143-1.109-.431-1.5-.287-.39-.692-.586-1.215-.586-.536 0-.945.195-1.228.583-.283.389-.425.89-.425 1.503v1.547c0 .617.144 1.121.431 1.512.287.391.698.586 1.233.586.52 0 .922-.195 1.207-.586.285-.391.428-.895.428-1.512v-1.547zm-8.155 5.045h-1.975v-3.099l-2.841-5.432h2.138l1.694 3.727h.035l1.699-3.727h2.15l-2.9 5.531v3z"/>
    <path fill="#FFF" fill-rule="evenodd" d="M72.306 9.424l-.837-.447L62.084.156a2.363 2.363 0 0 0-2.631.725L53.72 7.838c-.111.136-.473.307-.647.307h-8.634a2.367 2.367 0 0 0-2.163 3.335c.005.03.012.062.023.097.332 1.076-1.658.969-1.658.969l-7.118.004c-1.621 0-1.67 1.064-2.566 1.993l-5.75 4.456-9.434-6.365-.035-.008c-.563-.275-.651-.752-1.219-.752H2.643c-.846 0-1.81.673-2.146 1.299-.336.623-.262 1.385.202 2.089L11.216 31.45c.289.452.219 1.215-.147 1.61l-7.911 7.956c-1.023.95-1.702 2.533-1.702 4.11v5.938c0 .532.681 1.738 1.187 2.375.208.261.883 1.034 1.188 1.187l5.938 2.375h64.128l.017-2.761v-.458-41.646c0-1.187-.581-2.163-1.608-2.712z"/>
    <path fill="#E2131A" fill-rule="evenodd" d="M73.897 57.001H8.581L2.932 54.47a2.245 2.245 0 0 1-.771-.619c-.507-.637-.705-1.067-.705-1.6v-7.125c0-1.577.164-3.801 1.187-4.751l8.427-7.315c.365-.395.435-1.158.146-1.61L.699 15.262c-.464-.704-.538-1.466-.202-2.089.336-.626 1.3-1.299 2.146-1.299h10.688c2.93.06 3.303.254 4.75 1.187l8.313 4.751 3.375-3.269c.896-.929 2.13-2.669 3.751-2.669h7.125s1.316.102 1.187-1.187c.015-.58.037-.563 0-1.188.327-.962 1.359-1.188 2.376-1.188h8.312c.656 0 1.077-1.052 1.188-1.187l4.75-5.938c.915-1.177 1.663-1.188 2.375-1.188.706.055 1.641.225 3.563 1.188 6.311 3.779 9.518 6.426 9.518 7.387V54.24l-.017 2.761zm-28.502-5.938c0 1.483.602 2.375 2.375 2.375h4.75c2.34 0 2.376-.905 2.376-2.375l.036-6.414c0-.697.281-1.192.712-1.192.263 0 .583.186.927.626l5.45 8.168c.705.964.628 1.187 2.375 1.187h3.563c1.459-.02 1.187-.906 1.187-2.375V30.875c-.009-1.158 0-1.194-1.187-1.188h-2.375c-1.028-.001-1.181.315-1.188 1.188v8.313c0 .776-.764.956-1.169.956-.272 0-.608-.21-.971-.676l-5.673-6.922c-1.631-1.928-2.116-2.859-4.063-2.859 0 0-4.625.002-4.75 0-1.903-.025-2.397.497-2.375 2.375v19.001zm-4.75-38.002h-5.938c-1.887-.093-3.258 1.642-3.953 2.358l-6.735 7.143c-.8.559-1.469.06-2.375-1.188l-5.005-6.636c-.484-.73-1.654-1.708-3.308-1.677H2.643c-.878 0-1.329.947-.844 1.677l10.529 16.156c.573.891.446 2.229-.284 2.996l-8.213 7.673c-1.01 1.205-1.188 2.587-1.188 3.563v5.937c0 .976.871 2.375 2.375 2.375h4.75c1.43 0 2.402-.782 3.028-1.532l28.806-36.11c.626-.752.591-2.735-.957-2.735zm1.187 16.626h-5.937c-3.095-.039-3.662.882-4.75 2.375L16.21 51.011c-.928 1.137-.415 2.357.684 2.427h7.125c2.308 0 3.443-.699 4.356-1.848l8.375-10.526c.381-.479.732-.708 1.012-.708.39 0 .508.367.508 1.207v3.563c0 1.874-1.134 2.375-2.375 2.375h-1.188c-.832.035-1.006.689-1.846 1.765l-1.374 1.749c-.925 1.139-.124 2.423.845 2.423h9.5c2.128 0 2.376-.907 2.376-2.375V32.062c0-1.467-.185-2.375-2.376-2.375zm27.869-19.339c-.135-.56-1.167-.849-1.742-.849h-4.751c-.512 0-1.187-.676-1.187-1.188V2.374c0-1.266-.986-1.692-2.375 0l-4.75 5.937c-.324.395-.676 1.188-1.188 1.188h-9.5c-.533 0-.706.234-.877.738-.166.492.481 1.308.877 1.637l3.713 2.957c.011.007.019.016.029.024l.241.185a.895.895 0 0 1 .147 1.284l-4.724 5.753a1.245 1.245 0 0 0 1.531 1.899l7.948-4.08c.186-.096.412-.142.642-.142.335 0 .679.098.92.283l5.941 4.564a1.254 1.254 0 0 0 1.309.128c.174-.126.097-.477.116-.979v-7.126c-.022-1.475.948-1.761 1.404-1.995l5.633-2.882c.512-.261.777-.841.643-1.399z"/>
    <path fill="url(#a)" fill-rule="evenodd" d="M73.896 34.438v1.187l-4.75-3.563v-1.187l4.75 3.563z"/>
    <path fill="url(#b)" fill-rule="evenodd" d="M14.519 57.001h-2.375l-8.313-3.563h2.375l8.313 3.563zM27.582 57.001h-2.375l-8.313-3.563h2.375l8.313 3.563zM41.832 57.001h-2.375l-7.125-3.563h2.375l7.125 3.563zM56.083 57.001h-2.375l-7.125-3.563h2.375l7.125 3.563zM73.896 57.001h-2.374l-7.126-3.563h2.375l7.125 3.563z"/>
</svg>
